%TF.GenerationSoftware,KiCad,Pcbnew,9.0.1-9.0.1-0~ubuntu24.04.1*%
%TF.CreationDate,2025-04-02T18:15:36+02:00*%
%TF.ProjectId,starter,73746172-7465-4722-9e6b-696361645f70,rev?*%
%TF.SameCoordinates,Original*%
%TF.FileFunction,Soldermask,Bot*%
%TF.FilePolarity,Negative*%
%FSLAX46Y46*%
G04 Gerber Fmt 4.6, Leading zero omitted, Abs format (unit mm)*
G04 Created by KiCad (PCBNEW 9.0.1-9.0.1-0~ubuntu24.04.1) date 2025-04-02 18:15:36*
%MOMM*%
%LPD*%
G01*
G04 APERTURE LIST*
G04 Aperture macros list*
%AMRoundRect*
0 Rectangle with rounded corners*
0 $1 Rounding radius*
0 $2 $3 $4 $5 $6 $7 $8 $9 X,Y pos of 4 corners*
0 Add a 4 corners polygon primitive as box body*
4,1,4,$2,$3,$4,$5,$6,$7,$8,$9,$2,$3,0*
0 Add four circle primitives for the rounded corners*
1,1,$1+$1,$2,$3*
1,1,$1+$1,$4,$5*
1,1,$1+$1,$6,$7*
1,1,$1+$1,$8,$9*
0 Add four rect primitives between the rounded corners*
20,1,$1+$1,$2,$3,$4,$5,0*
20,1,$1+$1,$4,$5,$6,$7,0*
20,1,$1+$1,$6,$7,$8,$9,0*
20,1,$1+$1,$8,$9,$2,$3,0*%
G04 Aperture macros list end*
%ADD10R,1.500000X1.050000*%
%ADD11O,1.500000X1.050000*%
%ADD12O,1.950000X1.700000*%
%ADD13RoundRect,0.250000X0.725000X-0.600000X0.725000X0.600000X-0.725000X0.600000X-0.725000X-0.600000X0*%
%ADD14C,1.200000*%
%ADD15R,1.800000X1.800000*%
%ADD16C,1.800000*%
%ADD17C,2.109000*%
%ADD18RoundRect,0.250000X0.600000X0.750000X-0.600000X0.750000X-0.600000X-0.750000X0.600000X-0.750000X0*%
%ADD19O,1.700000X2.000000*%
%ADD20C,1.400000*%
%ADD21O,1.400000X1.400000*%
%ADD22R,2.200000X2.200000*%
%ADD23O,2.200000X2.200000*%
%ADD24RoundRect,0.250001X-0.949999X-0.949999X0.949999X-0.949999X0.949999X0.949999X-0.949999X0.949999X0*%
%ADD25C,2.400000*%
G04 APERTURE END LIST*
D10*
%TO.C,Q4*%
X96360000Y-75270000D03*
D11*
X96360000Y-74000000D03*
X96360000Y-72730000D03*
%TD*%
D12*
%TO.C,J1*%
X107040000Y-95816250D03*
X107040000Y-98316250D03*
X107040000Y-100816250D03*
X107040000Y-103316250D03*
X107040000Y-105816250D03*
D13*
X107040000Y-108316250D03*
D14*
X109040000Y-109916250D03*
%TD*%
D15*
%TO.C,D1*%
X95440000Y-84316250D03*
D16*
X97980000Y-84316250D03*
%TD*%
D17*
%TO.C,U1*%
X118920000Y-94436250D03*
X118920000Y-96976250D03*
X118920000Y-99516250D03*
X118920000Y-102056250D03*
X118920000Y-107136250D03*
X118920000Y-104596250D03*
X134160000Y-112216250D03*
X118920000Y-112216250D03*
X134160000Y-109676250D03*
X134160000Y-107136250D03*
X134160000Y-104596250D03*
X134160000Y-102056250D03*
X134160000Y-99516250D03*
X134160000Y-96976250D03*
X134160000Y-94436250D03*
X118920000Y-109676250D03*
%TD*%
D15*
%TO.C,D5*%
X114940000Y-83816250D03*
D16*
X117480000Y-83816250D03*
%TD*%
D14*
%TO.C,J4*%
X96390000Y-107841250D03*
D18*
X94790000Y-109841250D03*
D19*
X92290000Y-109841250D03*
%TD*%
D20*
%TO.C,R1*%
X85980000Y-84316250D03*
D21*
X91060000Y-84316250D03*
%TD*%
D22*
%TO.C,D3*%
X121600000Y-67316250D03*
D23*
X111440000Y-67316250D03*
%TD*%
D24*
%TO.C,J2*%
X101540000Y-57316250D03*
D25*
X106620000Y-57316250D03*
X111700000Y-57316250D03*
X116780000Y-57316250D03*
X121860000Y-57316250D03*
X126940000Y-57316250D03*
%TD*%
D10*
%TO.C,Q3*%
X127440000Y-75816250D03*
D11*
X127440000Y-74546250D03*
X127440000Y-73276250D03*
%TD*%
D22*
%TO.C,D4*%
X137440000Y-67816250D03*
D23*
X127280000Y-67816250D03*
%TD*%
D20*
%TO.C,R3*%
X122675000Y-84316250D03*
D21*
X127755000Y-84316250D03*
%TD*%
D24*
%TO.C,J3*%
X89200000Y-96458750D03*
D25*
X94280000Y-96458750D03*
%TD*%
D22*
%TO.C,D2*%
X106520000Y-67316250D03*
D23*
X96360000Y-67316250D03*
%TD*%
D15*
%TO.C,D6*%
X132900000Y-84316250D03*
D16*
X135440000Y-84316250D03*
%TD*%
D10*
%TO.C,Q2*%
X111440000Y-75816250D03*
D11*
X111440000Y-74546250D03*
X111440000Y-73276250D03*
%TD*%
D20*
%TO.C,R2*%
X104980000Y-83816250D03*
D21*
X110060000Y-83816250D03*
%TD*%
M02*
