%TF.GenerationSoftware,KiCad,Pcbnew,9.0.1-9.0.1-0~ubuntu24.04.1*%
%TF.CreationDate,2025-04-02T18:15:35+02:00*%
%TF.ProjectId,starter,73746172-7465-4722-9e6b-696361645f70,rev?*%
%TF.SameCoordinates,Original*%
%TF.FileFunction,Copper,L2,Bot*%
%TF.FilePolarity,Positive*%
%FSLAX46Y46*%
G04 Gerber Fmt 4.6, Leading zero omitted, Abs format (unit mm)*
G04 Created by KiCad (PCBNEW 9.0.1-9.0.1-0~ubuntu24.04.1) date 2025-04-02 18:15:35*
%MOMM*%
%LPD*%
G01*
G04 APERTURE LIST*
G04 Aperture macros list*
%AMRoundRect*
0 Rectangle with rounded corners*
0 $1 Rounding radius*
0 $2 $3 $4 $5 $6 $7 $8 $9 X,Y pos of 4 corners*
0 Add a 4 corners polygon primitive as box body*
4,1,4,$2,$3,$4,$5,$6,$7,$8,$9,$2,$3,0*
0 Add four circle primitives for the rounded corners*
1,1,$1+$1,$2,$3*
1,1,$1+$1,$4,$5*
1,1,$1+$1,$6,$7*
1,1,$1+$1,$8,$9*
0 Add four rect primitives between the rounded corners*
20,1,$1+$1,$2,$3,$4,$5,0*
20,1,$1+$1,$4,$5,$6,$7,0*
20,1,$1+$1,$6,$7,$8,$9,0*
20,1,$1+$1,$8,$9,$2,$3,0*%
G04 Aperture macros list end*
%TA.AperFunction,ComponentPad*%
%ADD10R,1.500000X1.050000*%
%TD*%
%TA.AperFunction,ComponentPad*%
%ADD11O,1.500000X1.050000*%
%TD*%
%TA.AperFunction,ComponentPad*%
%ADD12O,1.950000X1.700000*%
%TD*%
%TA.AperFunction,ComponentPad*%
%ADD13RoundRect,0.250000X0.725000X-0.600000X0.725000X0.600000X-0.725000X0.600000X-0.725000X-0.600000X0*%
%TD*%
%TA.AperFunction,ComponentPad*%
%ADD14R,1.800000X1.800000*%
%TD*%
%TA.AperFunction,ComponentPad*%
%ADD15C,1.800000*%
%TD*%
%TA.AperFunction,ComponentPad*%
%ADD16C,1.905000*%
%TD*%
%TA.AperFunction,ComponentPad*%
%ADD17RoundRect,0.250000X0.600000X0.750000X-0.600000X0.750000X-0.600000X-0.750000X0.600000X-0.750000X0*%
%TD*%
%TA.AperFunction,ComponentPad*%
%ADD18O,1.700000X2.000000*%
%TD*%
%TA.AperFunction,ComponentPad*%
%ADD19C,1.400000*%
%TD*%
%TA.AperFunction,ComponentPad*%
%ADD20O,1.400000X1.400000*%
%TD*%
%TA.AperFunction,ComponentPad*%
%ADD21R,2.200000X2.200000*%
%TD*%
%TA.AperFunction,ComponentPad*%
%ADD22O,2.200000X2.200000*%
%TD*%
%TA.AperFunction,ComponentPad*%
%ADD23RoundRect,0.250001X-0.949999X-0.949999X0.949999X-0.949999X0.949999X0.949999X-0.949999X0.949999X0*%
%TD*%
%TA.AperFunction,ComponentPad*%
%ADD24C,2.400000*%
%TD*%
G04 APERTURE END LIST*
D10*
%TO.P,Q4,1,S*%
%TO.N,GND*%
X96360000Y-75270000D03*
D11*
%TO.P,Q4,2,G*%
%TO.N,Net-(D1-A)*%
X96360000Y-74000000D03*
%TO.P,Q4,3,D*%
%TO.N,Net-(D2-A)*%
X96360000Y-72730000D03*
%TD*%
D12*
%TO.P,J1,6,Pin_6*%
%TO.N,+3.3V*%
X107040000Y-95816250D03*
%TO.P,J1,5,Pin_5*%
%TO.N,unconnected-(J1-Pin_5-Pad5)*%
X107040000Y-98316250D03*
%TO.P,J1,4,Pin_4*%
%TO.N,Net-(J1-Pin_4)*%
X107040000Y-100816250D03*
%TO.P,J1,3,Pin_3*%
%TO.N,Net-(J1-Pin_3)*%
X107040000Y-103316250D03*
%TO.P,J1,2,Pin_2*%
%TO.N,Net-(J1-Pin_2)*%
X107040000Y-105816250D03*
D13*
%TO.P,J1,1,Pin_1*%
%TO.N,Net-(J1-Pin_1)*%
X107040000Y-108316250D03*
%TD*%
D14*
%TO.P,D1,1,K*%
%TO.N,Net-(D1-K)*%
X95440000Y-84316250D03*
D15*
%TO.P,D1,2,A*%
%TO.N,Net-(D1-A)*%
X97980000Y-84316250D03*
%TD*%
D16*
%TO.P,U1,0,GPIO0*%
%TO.N,Net-(J1-Pin_4)*%
X118920000Y-94436250D03*
%TO.P,U1,1,GPIO1*%
%TO.N,Net-(J1-Pin_3)*%
X118920000Y-96976250D03*
%TO.P,U1,2,GPIO2*%
%TO.N,unconnected-(U1-GPIO2-Pad2)*%
X118920000Y-99516250D03*
%TO.P,U1,3,GPIO3*%
%TO.N,Net-(J1-Pin_2)*%
X118920000Y-102056250D03*
%TO.P,U1,3.3,3V3*%
%TO.N,+3.3V*%
X118920000Y-107136250D03*
%TO.P,U1,4,GPIO4*%
%TO.N,Net-(J1-Pin_1)*%
X118920000Y-104596250D03*
%TO.P,U1,5,GPIO5*%
%TO.N,unconnected-(U1-GPIO5-Pad5)*%
X134160000Y-112216250D03*
%TO.P,U1,5V,5V*%
%TO.N,+5V*%
X118920000Y-112216250D03*
%TO.P,U1,6,GPIO6*%
%TO.N,unconnected-(U1-GPIO6-Pad6)*%
X134160000Y-109676250D03*
%TO.P,U1,7,GPIO7*%
%TO.N,Net-(D6-A)*%
X134160000Y-107136250D03*
%TO.P,U1,8,GPIO8*%
%TO.N,unconnected-(U1-GPIO8-Pad8)*%
X134160000Y-104596250D03*
%TO.P,U1,9,GPIO9*%
%TO.N,unconnected-(U1-GPIO9-Pad9)*%
X134160000Y-102056250D03*
%TO.P,U1,10,GPIO10*%
%TO.N,Net-(D5-A)*%
X134160000Y-99516250D03*
%TO.P,U1,20,GPIO20*%
%TO.N,Net-(D1-A)*%
X134160000Y-96976250D03*
%TO.P,U1,21,GPIO21*%
%TO.N,unconnected-(U1-GPIO21-Pad21)*%
X134160000Y-94436250D03*
%TO.P,U1,G,GND*%
%TO.N,GND*%
X118920000Y-109676250D03*
%TD*%
D14*
%TO.P,D5,1,K*%
%TO.N,Net-(D5-K)*%
X114940000Y-83816250D03*
D15*
%TO.P,D5,2,A*%
%TO.N,Net-(D5-A)*%
X117480000Y-83816250D03*
%TD*%
D17*
%TO.P,J4,1,Pin_1*%
%TO.N,+5V*%
X94790000Y-109841250D03*
D18*
%TO.P,J4,2,Pin_2*%
%TO.N,GND*%
X92290000Y-109841250D03*
%TD*%
D19*
%TO.P,R1,1*%
%TO.N,GND*%
X85980000Y-84316250D03*
D20*
%TO.P,R1,2*%
%TO.N,Net-(D1-K)*%
X91060000Y-84316250D03*
%TD*%
D21*
%TO.P,D3,1,K*%
%TO.N,+12V*%
X121600000Y-67316250D03*
D22*
%TO.P,D3,2,A*%
%TO.N,Net-(D3-A)*%
X111440000Y-67316250D03*
%TD*%
D23*
%TO.P,J2,1,Pin_1*%
%TO.N,Net-(D2-A)*%
X101540000Y-57316250D03*
D24*
%TO.P,J2,2,Pin_2*%
%TO.N,+12V*%
X106620000Y-57316250D03*
%TO.P,J2,3,Pin_3*%
%TO.N,Net-(D3-A)*%
X111700000Y-57316250D03*
%TO.P,J2,4,Pin_4*%
%TO.N,+12V*%
X116780000Y-57316250D03*
%TO.P,J2,5,Pin_5*%
%TO.N,Net-(D4-A)*%
X121860000Y-57316250D03*
%TO.P,J2,6,Pin_6*%
%TO.N,+12V*%
X126940000Y-57316250D03*
%TD*%
D10*
%TO.P,Q3,1,S*%
%TO.N,GND*%
X127440000Y-75816250D03*
D11*
%TO.P,Q3,2,G*%
%TO.N,Net-(D6-A)*%
X127440000Y-74546250D03*
%TO.P,Q3,3,D*%
%TO.N,Net-(D4-A)*%
X127440000Y-73276250D03*
%TD*%
D21*
%TO.P,D4,1,K*%
%TO.N,+12V*%
X137440000Y-67816250D03*
D22*
%TO.P,D4,2,A*%
%TO.N,Net-(D4-A)*%
X127280000Y-67816250D03*
%TD*%
D19*
%TO.P,R3,1*%
%TO.N,GND*%
X122675000Y-84316250D03*
D20*
%TO.P,R3,2*%
%TO.N,Net-(D6-K)*%
X127755000Y-84316250D03*
%TD*%
D23*
%TO.P,J3,1,Pin_1*%
%TO.N,GND*%
X89200000Y-96458750D03*
D24*
%TO.P,J3,2,Pin_2*%
%TO.N,+12V*%
X94280000Y-96458750D03*
%TD*%
D21*
%TO.P,D2,1,K*%
%TO.N,+12V*%
X106520000Y-67316250D03*
D22*
%TO.P,D2,2,A*%
%TO.N,Net-(D2-A)*%
X96360000Y-67316250D03*
%TD*%
D14*
%TO.P,D6,1,K*%
%TO.N,Net-(D6-K)*%
X132900000Y-84316250D03*
D15*
%TO.P,D6,2,A*%
%TO.N,Net-(D6-A)*%
X135440000Y-84316250D03*
%TD*%
D10*
%TO.P,Q2,1,S*%
%TO.N,GND*%
X111440000Y-75816250D03*
D11*
%TO.P,Q2,2,G*%
%TO.N,Net-(D5-A)*%
X111440000Y-74546250D03*
%TO.P,Q2,3,D*%
%TO.N,Net-(D3-A)*%
X111440000Y-73276250D03*
%TD*%
D19*
%TO.P,R2,1*%
%TO.N,GND*%
X104980000Y-83816250D03*
D20*
%TO.P,R2,2*%
%TO.N,Net-(D5-K)*%
X110060000Y-83816250D03*
%TD*%
%TA.AperFunction,Conductor*%
%TO.N,GND*%
G36*
X141442539Y-49020185D02*
G01*
X141488294Y-49072989D01*
X141499500Y-49124500D01*
X141499500Y-116375500D01*
X141479815Y-116442539D01*
X141427011Y-116488294D01*
X141375500Y-116499500D01*
X80124500Y-116499500D01*
X80057461Y-116479815D01*
X80011706Y-116427011D01*
X80000500Y-116375500D01*
X80000500Y-109585003D01*
X90940000Y-109585003D01*
X90940000Y-109591250D01*
X91856988Y-109591250D01*
X91824075Y-109648257D01*
X91790000Y-109775424D01*
X91790000Y-109907076D01*
X91824075Y-110034243D01*
X91856988Y-110091250D01*
X90940000Y-110091250D01*
X90940000Y-110097496D01*
X90973242Y-110307377D01*
X90973242Y-110307380D01*
X91038904Y-110509467D01*
X91135379Y-110698807D01*
X91260272Y-110870709D01*
X91260276Y-110870714D01*
X91410535Y-111020973D01*
X91410540Y-111020977D01*
X91582442Y-111145870D01*
X91771782Y-111242345D01*
X91973871Y-111308007D01*
X92040000Y-111318481D01*
X92040000Y-110274262D01*
X92097007Y-110307175D01*
X92224174Y-110341250D01*
X92355826Y-110341250D01*
X92482993Y-110307175D01*
X92540000Y-110274262D01*
X92540000Y-111318480D01*
X92606126Y-111308007D01*
X92606129Y-111308007D01*
X92808217Y-111242345D01*
X92997557Y-111145870D01*
X93169458Y-111020978D01*
X93308330Y-110882106D01*
X93369653Y-110848621D01*
X93439345Y-110853605D01*
X93495279Y-110895476D01*
X93501551Y-110904690D01*
X93505185Y-110910581D01*
X93505186Y-110910584D01*
X93597288Y-111059906D01*
X93721344Y-111183962D01*
X93870666Y-111276064D01*
X94037203Y-111331249D01*
X94139991Y-111341750D01*
X95440008Y-111341749D01*
X95542797Y-111331249D01*
X95709334Y-111276064D01*
X95858656Y-111183962D01*
X95982712Y-111059906D01*
X96074814Y-110910584D01*
X96129999Y-110744047D01*
X96140500Y-110641259D01*
X96140499Y-109041242D01*
X96129999Y-108938453D01*
X96097037Y-108838983D01*
X96094636Y-108769157D01*
X96130367Y-108709115D01*
X96192888Y-108677922D01*
X96238935Y-108678364D01*
X96278270Y-108686187D01*
X96306230Y-108691749D01*
X96306232Y-108691750D01*
X96306233Y-108691750D01*
X96473768Y-108691750D01*
X96473769Y-108691749D01*
X96638082Y-108659066D01*
X96792863Y-108594953D01*
X96932162Y-108501876D01*
X97050626Y-108383412D01*
X97143703Y-108244113D01*
X97207816Y-108089332D01*
X97240500Y-107925017D01*
X97240500Y-107757483D01*
X97207816Y-107593168D01*
X97143703Y-107438387D01*
X97112537Y-107391744D01*
X97050626Y-107299087D01*
X96932162Y-107180623D01*
X96792860Y-107087545D01*
X96638082Y-107023434D01*
X96638074Y-107023432D01*
X96473771Y-106990750D01*
X96473767Y-106990750D01*
X96306233Y-106990750D01*
X96306228Y-106990750D01*
X96141925Y-107023432D01*
X96141917Y-107023434D01*
X95987139Y-107087545D01*
X95847837Y-107180623D01*
X95729373Y-107299087D01*
X95636295Y-107438389D01*
X95572184Y-107593167D01*
X95572182Y-107593175D01*
X95539500Y-107757478D01*
X95539500Y-107925021D01*
X95572182Y-108089324D01*
X95572185Y-108089336D01*
X95607269Y-108174036D01*
X95614738Y-108243505D01*
X95583463Y-108305984D01*
X95523374Y-108341636D01*
X95480106Y-108344846D01*
X95440011Y-108340750D01*
X94139998Y-108340750D01*
X94139981Y-108340751D01*
X94037203Y-108351250D01*
X94037200Y-108351251D01*
X93870668Y-108406435D01*
X93870663Y-108406437D01*
X93721342Y-108498539D01*
X93597289Y-108622592D01*
X93501551Y-108777809D01*
X93449603Y-108824533D01*
X93380640Y-108835756D01*
X93316558Y-108807912D01*
X93308331Y-108800393D01*
X93169464Y-108661526D01*
X93169459Y-108661522D01*
X92997557Y-108536629D01*
X92808215Y-108440153D01*
X92606124Y-108374491D01*
X92540000Y-108364018D01*
X92540000Y-109408238D01*
X92482993Y-109375325D01*
X92355826Y-109341250D01*
X92224174Y-109341250D01*
X92097007Y-109375325D01*
X92040000Y-109408238D01*
X92040000Y-108364018D01*
X92039999Y-108364018D01*
X91973875Y-108374491D01*
X91771784Y-108440153D01*
X91582442Y-108536629D01*
X91410540Y-108661522D01*
X91410535Y-108661526D01*
X91260276Y-108811785D01*
X91260272Y-108811790D01*
X91135379Y-108983692D01*
X91038904Y-109173032D01*
X90973242Y-109375119D01*
X90973242Y-109375122D01*
X90940000Y-109585003D01*
X80000500Y-109585003D01*
X80000500Y-95458764D01*
X87500000Y-95458764D01*
X87500000Y-96208750D01*
X88437639Y-96208750D01*
X88430743Y-96225399D01*
X88400000Y-96379957D01*
X88400000Y-96537543D01*
X88430743Y-96692101D01*
X88437639Y-96708750D01*
X87500000Y-96708750D01*
X87500000Y-97458735D01*
X87510493Y-97561439D01*
X87510494Y-97561446D01*
X87565641Y-97727868D01*
X87565643Y-97727873D01*
X87657684Y-97877094D01*
X87781655Y-98001065D01*
X87930876Y-98093106D01*
X87930881Y-98093108D01*
X88097303Y-98148255D01*
X88097310Y-98148256D01*
X88200014Y-98158749D01*
X88200027Y-98158750D01*
X88950000Y-98158750D01*
X88950000Y-97221110D01*
X88966649Y-97228007D01*
X89121207Y-97258750D01*
X89278793Y-97258750D01*
X89433351Y-97228007D01*
X89450000Y-97221110D01*
X89450000Y-98158750D01*
X90199973Y-98158750D01*
X90199985Y-98158749D01*
X90302689Y-98148256D01*
X90302696Y-98148255D01*
X90469118Y-98093108D01*
X90469123Y-98093106D01*
X90618344Y-98001065D01*
X90742315Y-97877094D01*
X90834356Y-97727873D01*
X90834358Y-97727868D01*
X90889505Y-97561446D01*
X90889506Y-97561439D01*
X90899999Y-97458735D01*
X90900000Y-97458722D01*
X90900000Y-96708750D01*
X89962361Y-96708750D01*
X89969257Y-96692101D01*
X90000000Y-96537543D01*
X90000000Y-96379957D01*
X89993504Y-96347299D01*
X92579500Y-96347299D01*
X92579500Y-96570200D01*
X92579501Y-96570216D01*
X92608594Y-96791202D01*
X92608595Y-96791207D01*
X92608596Y-96791213D01*
X92655412Y-96965932D01*
X92666290Y-97006530D01*
X92666293Y-97006540D01*
X92751593Y-97212472D01*
X92751595Y-97212476D01*
X92863052Y-97405524D01*
X92863057Y-97405530D01*
X92863058Y-97405532D01*
X92998751Y-97582372D01*
X92998757Y-97582379D01*
X93156370Y-97739992D01*
X93156376Y-97739997D01*
X93333226Y-97875698D01*
X93526274Y-97987155D01*
X93732219Y-98072460D01*
X93947537Y-98130154D01*
X94168543Y-98159250D01*
X94168550Y-98159250D01*
X94391450Y-98159250D01*
X94391457Y-98159250D01*
X94612463Y-98130154D01*
X94827781Y-98072460D01*
X95033726Y-97987155D01*
X95226774Y-97875698D01*
X95403624Y-97739997D01*
X95561247Y-97582374D01*
X95696948Y-97405524D01*
X95808405Y-97212476D01*
X95893710Y-97006531D01*
X95951404Y-96791213D01*
X95980500Y-96570207D01*
X95980500Y-96347293D01*
X95951404Y-96126287D01*
X95893710Y-95910969D01*
X95893705Y-95910959D01*
X95893704Y-95910953D01*
X95828089Y-95752543D01*
X95810451Y-95709963D01*
X105564500Y-95709963D01*
X105564500Y-95922536D01*
X105596772Y-96126297D01*
X105597754Y-96132493D01*
X105624468Y-96214711D01*
X105663444Y-96334664D01*
X105759951Y-96524070D01*
X105884890Y-96696036D01*
X106035209Y-96846355D01*
X106035214Y-96846359D01*
X106199793Y-96965932D01*
X106242459Y-97021261D01*
X106248438Y-97090875D01*
X106215833Y-97152670D01*
X106199793Y-97166568D01*
X106035214Y-97286140D01*
X106035209Y-97286144D01*
X105884890Y-97436463D01*
X105759951Y-97608429D01*
X105663444Y-97797835D01*
X105597753Y-98000010D01*
X105564500Y-98209963D01*
X105564500Y-98422536D01*
X105587805Y-98569682D01*
X105597754Y-98632493D01*
X105637465Y-98754711D01*
X105663444Y-98834664D01*
X105759951Y-99024070D01*
X105884890Y-99196036D01*
X106035209Y-99346355D01*
X106035214Y-99346359D01*
X106199793Y-99465932D01*
X106242459Y-99521261D01*
X106248438Y-99590875D01*
X106215833Y-99652670D01*
X106199793Y-99666568D01*
X106035214Y-99786140D01*
X106035209Y-99786144D01*
X105884890Y-99936463D01*
X105759951Y-100108429D01*
X105663444Y-100297835D01*
X105597753Y-100500010D01*
X105578031Y-100624533D01*
X105564500Y-100709963D01*
X105564500Y-100922537D01*
X105597754Y-101132493D01*
X105650462Y-101294712D01*
X105663444Y-101334664D01*
X105759951Y-101524070D01*
X105884890Y-101696036D01*
X106035209Y-101846355D01*
X106035214Y-101846359D01*
X106199793Y-101965932D01*
X106242459Y-102021261D01*
X106248438Y-102090875D01*
X106215833Y-102152670D01*
X106199793Y-102166568D01*
X106035214Y-102286140D01*
X106035209Y-102286144D01*
X105884890Y-102436463D01*
X105759951Y-102608429D01*
X105663444Y-102797835D01*
X105597753Y-103000010D01*
X105571695Y-103164533D01*
X105564500Y-103209963D01*
X105564500Y-103422537D01*
X105574534Y-103485894D01*
X105597753Y-103632489D01*
X105663444Y-103834664D01*
X105759951Y-104024070D01*
X105884890Y-104196036D01*
X106035209Y-104346355D01*
X106035214Y-104346359D01*
X106199793Y-104465932D01*
X106242459Y-104521261D01*
X106248438Y-104590875D01*
X106215833Y-104652670D01*
X106199793Y-104666568D01*
X106035214Y-104786140D01*
X106035209Y-104786144D01*
X105884890Y-104936463D01*
X105759951Y-105108429D01*
X105663444Y-105297835D01*
X105597753Y-105500010D01*
X105564500Y-105709963D01*
X105564500Y-105922536D01*
X105597753Y-106132489D01*
X105663444Y-106334664D01*
X105759951Y-106524070D01*
X105884890Y-106696036D01*
X106023705Y-106834851D01*
X106057190Y-106896174D01*
X106052206Y-106965866D01*
X106010334Y-107021799D01*
X106001121Y-107028071D01*
X105846342Y-107123539D01*
X105722289Y-107247592D01*
X105630187Y-107396913D01*
X105630186Y-107396916D01*
X105575001Y-107563453D01*
X105575001Y-107563454D01*
X105575000Y-107563454D01*
X105564500Y-107666233D01*
X105564500Y-108966251D01*
X105564501Y-108966268D01*
X105575000Y-109069046D01*
X105575001Y-109069049D01*
X105584739Y-109098435D01*
X105630186Y-109235584D01*
X105722288Y-109384906D01*
X105846344Y-109508962D01*
X105995666Y-109601064D01*
X106162203Y-109656249D01*
X106264991Y-109666750D01*
X107815008Y-109666749D01*
X107917797Y-109656249D01*
X108044031Y-109614418D01*
X108113855Y-109612017D01*
X108173897Y-109647748D01*
X108205091Y-109710268D01*
X108204650Y-109756315D01*
X108189500Y-109832484D01*
X108189500Y-110000021D01*
X108222182Y-110164324D01*
X108222184Y-110164332D01*
X108286295Y-110319110D01*
X108379373Y-110458412D01*
X108497837Y-110576876D01*
X108566592Y-110622816D01*
X108637137Y-110669953D01*
X108791918Y-110734066D01*
X108938637Y-110763250D01*
X108956228Y-110766749D01*
X108956232Y-110766750D01*
X108956233Y-110766750D01*
X109123768Y-110766750D01*
X109123769Y-110766749D01*
X109288082Y-110734066D01*
X109442863Y-110669953D01*
X109582162Y-110576876D01*
X109700626Y-110458412D01*
X109793703Y-110319113D01*
X109857816Y-110164332D01*
X109890500Y-110000017D01*
X109890500Y-109832483D01*
X109857816Y-109668168D01*
X109849358Y-109647748D01*
X109831451Y-109604516D01*
X109793704Y-109513389D01*
X109700626Y-109374087D01*
X109582162Y-109255623D01*
X109442860Y-109162545D01*
X109288082Y-109098434D01*
X109288074Y-109098432D01*
X109123771Y-109065750D01*
X109123767Y-109065750D01*
X108956233Y-109065750D01*
X108956228Y-109065750D01*
X108791925Y-109098432D01*
X108791913Y-109098435D01*
X108681109Y-109144332D01*
X108611640Y-109151801D01*
X108549161Y-109120526D01*
X108513509Y-109060437D01*
X108510299Y-109017168D01*
X108515499Y-108966266D01*
X108515500Y-108966259D01*
X108515499Y-107666242D01*
X108504999Y-107563453D01*
X108449814Y-107396916D01*
X108357712Y-107247594D01*
X108233656Y-107123538D01*
X108084334Y-107031436D01*
X108084333Y-107031435D01*
X108078878Y-107028071D01*
X108032154Y-106976123D01*
X108020931Y-106907160D01*
X108048775Y-106843078D01*
X108056272Y-106834873D01*
X108195104Y-106696042D01*
X108320051Y-106524066D01*
X108416557Y-106334662D01*
X108482246Y-106132493D01*
X108515500Y-105922537D01*
X108515500Y-105709963D01*
X108482246Y-105500007D01*
X108416557Y-105297838D01*
X108320051Y-105108434D01*
X108320049Y-105108431D01*
X108320048Y-105108429D01*
X108195109Y-104936463D01*
X108044792Y-104786146D01*
X108044784Y-104786140D01*
X107880204Y-104666566D01*
X107837540Y-104611239D01*
X107831561Y-104541626D01*
X107864166Y-104479830D01*
X107880199Y-104465936D01*
X108044792Y-104346354D01*
X108195104Y-104196042D01*
X108195106Y-104196038D01*
X108195109Y-104196036D01*
X108304086Y-104046039D01*
X108320051Y-104024066D01*
X108416557Y-103834662D01*
X108482246Y-103632493D01*
X108515500Y-103422537D01*
X108515500Y-103209963D01*
X108482246Y-103000007D01*
X108416557Y-102797838D01*
X108320051Y-102608434D01*
X108320049Y-102608431D01*
X108320048Y-102608429D01*
X108195109Y-102436463D01*
X108044792Y-102286146D01*
X108044784Y-102286140D01*
X107880204Y-102166566D01*
X107837540Y-102111239D01*
X107831561Y-102041626D01*
X107864166Y-101979830D01*
X107880199Y-101965936D01*
X108044792Y-101846354D01*
X108195104Y-101696042D01*
X108195106Y-101696038D01*
X108195109Y-101696036D01*
X108320048Y-101524070D01*
X108320047Y-101524070D01*
X108320051Y-101524066D01*
X108416557Y-101334662D01*
X108482246Y-101132493D01*
X108515500Y-100922537D01*
X108515500Y-100709963D01*
X108482246Y-100500007D01*
X108416557Y-100297838D01*
X108320051Y-100108434D01*
X108320049Y-100108431D01*
X108320048Y-100108429D01*
X108195109Y-99936463D01*
X108044792Y-99786146D01*
X108044784Y-99786140D01*
X107880204Y-99666566D01*
X107837540Y-99611239D01*
X107831561Y-99541626D01*
X107864166Y-99479830D01*
X107880199Y-99465936D01*
X108044792Y-99346354D01*
X108195104Y-99196042D01*
X108195106Y-99196038D01*
X108195109Y-99196036D01*
X108320048Y-99024070D01*
X108320047Y-99024070D01*
X108320051Y-99024066D01*
X108416557Y-98834662D01*
X108482246Y-98632493D01*
X108515500Y-98422537D01*
X108515500Y-98209963D01*
X108482246Y-98000007D01*
X108416557Y-97797838D01*
X108320051Y-97608434D01*
X108320049Y-97608431D01*
X108320048Y-97608429D01*
X108195109Y-97436463D01*
X108044792Y-97286146D01*
X108007084Y-97258750D01*
X107880204Y-97166566D01*
X107837540Y-97111239D01*
X107831561Y-97041626D01*
X107864166Y-96979830D01*
X107880199Y-96965936D01*
X108044792Y-96846354D01*
X108195104Y-96696042D01*
X108195106Y-96696038D01*
X108195109Y-96696036D01*
X108320048Y-96524070D01*
X108320047Y-96524070D01*
X108320051Y-96524066D01*
X108416557Y-96334662D01*
X108482246Y-96132493D01*
X108515500Y-95922537D01*
X108515500Y-95709963D01*
X108482246Y-95500007D01*
X108416557Y-95297838D01*
X108320051Y-95108434D01*
X108320049Y-95108431D01*
X108320048Y-95108429D01*
X108195109Y-94936463D01*
X108044786Y-94786140D01*
X107872820Y-94661201D01*
X107683414Y-94564694D01*
X107683413Y-94564693D01*
X107683412Y-94564693D01*
X107481243Y-94499004D01*
X107481241Y-94499003D01*
X107481240Y-94499003D01*
X107319957Y-94473458D01*
X107271287Y-94465750D01*
X106808713Y-94465750D01*
X106760042Y-94473458D01*
X106598760Y-94499003D01*
X106396585Y-94564694D01*
X106207179Y-94661201D01*
X106035213Y-94786140D01*
X105884890Y-94936463D01*
X105759951Y-95108429D01*
X105663444Y-95297835D01*
X105597753Y-95500010D01*
X105564500Y-95709963D01*
X95810451Y-95709963D01*
X95808407Y-95705028D01*
X95808404Y-95705023D01*
X95794895Y-95681625D01*
X95696948Y-95511976D01*
X95597842Y-95382818D01*
X95561248Y-95335127D01*
X95561242Y-95335120D01*
X95403629Y-95177507D01*
X95403622Y-95177501D01*
X95226782Y-95041808D01*
X95226780Y-95041807D01*
X95226774Y-95041802D01*
X95033726Y-94930345D01*
X95033722Y-94930343D01*
X94827790Y-94845043D01*
X94827783Y-94845041D01*
X94827781Y-94845040D01*
X94612463Y-94787346D01*
X94612457Y-94787345D01*
X94612452Y-94787344D01*
X94391466Y-94758251D01*
X94391463Y-94758250D01*
X94391457Y-94758250D01*
X94168543Y-94758250D01*
X94168537Y-94758250D01*
X94168533Y-94758251D01*
X93947547Y-94787344D01*
X93947540Y-94787345D01*
X93947537Y-94787346D01*
X93809275Y-94824393D01*
X93732219Y-94845040D01*
X93732209Y-94845043D01*
X93526277Y-94930343D01*
X93526273Y-94930345D01*
X93333226Y-95041802D01*
X93333217Y-95041808D01*
X93156377Y-95177501D01*
X93156370Y-95177507D01*
X92998757Y-95335120D01*
X92998751Y-95335127D01*
X92863058Y-95511967D01*
X92863052Y-95511976D01*
X92751595Y-95705023D01*
X92751593Y-95705027D01*
X92666293Y-95910959D01*
X92666290Y-95910969D01*
X92608597Y-96126284D01*
X92608594Y-96126297D01*
X92579501Y-96347283D01*
X92579500Y-96347299D01*
X89993504Y-96347299D01*
X89969257Y-96225399D01*
X89962361Y-96208750D01*
X90900000Y-96208750D01*
X90900000Y-95458777D01*
X90899999Y-95458764D01*
X90889506Y-95356060D01*
X90889505Y-95356053D01*
X90834358Y-95189631D01*
X90834356Y-95189626D01*
X90742315Y-95040405D01*
X90618344Y-94916434D01*
X90469123Y-94824393D01*
X90469118Y-94824391D01*
X90302696Y-94769244D01*
X90302689Y-94769243D01*
X90199985Y-94758750D01*
X89450000Y-94758750D01*
X89450000Y-95696389D01*
X89433351Y-95689493D01*
X89278793Y-95658750D01*
X89121207Y-95658750D01*
X88966649Y-95689493D01*
X88950000Y-95696389D01*
X88950000Y-94758750D01*
X88200014Y-94758750D01*
X88097310Y-94769243D01*
X88097303Y-94769244D01*
X87930881Y-94824391D01*
X87930876Y-94824393D01*
X87781655Y-94916434D01*
X87657684Y-95040405D01*
X87565643Y-95189626D01*
X87565641Y-95189631D01*
X87510494Y-95356053D01*
X87510493Y-95356060D01*
X87500000Y-95458764D01*
X80000500Y-95458764D01*
X80000500Y-94321896D01*
X117467000Y-94321896D01*
X117467000Y-94550603D01*
X117502778Y-94776496D01*
X117502778Y-94776499D01*
X117573450Y-94994005D01*
X117573452Y-94994008D01*
X117677283Y-95197788D01*
X117811714Y-95382816D01*
X117973434Y-95544536D01*
X118042923Y-95595023D01*
X118057938Y-95605932D01*
X118100603Y-95661263D01*
X118106582Y-95730876D01*
X118073976Y-95792671D01*
X118057938Y-95806568D01*
X117973432Y-95867965D01*
X117811716Y-96029681D01*
X117811716Y-96029682D01*
X117811714Y-96029684D01*
X117775297Y-96079808D01*
X117677283Y-96214711D01*
X117573450Y-96418494D01*
X117502778Y-96636000D01*
X117502778Y-96636003D01*
X117467000Y-96861896D01*
X117467000Y-97090603D01*
X117502778Y-97316496D01*
X117502778Y-97316499D01*
X117573450Y-97534005D01*
X117672231Y-97727873D01*
X117677283Y-97737788D01*
X117811714Y-97922816D01*
X117973434Y-98084536D01*
X118036219Y-98130152D01*
X118057938Y-98145932D01*
X118100603Y-98201263D01*
X118106582Y-98270876D01*
X118073976Y-98332671D01*
X118057938Y-98346568D01*
X117973432Y-98407965D01*
X117811716Y-98569681D01*
X117811716Y-98569682D01*
X117811714Y-98569684D01*
X117753980Y-98649146D01*
X117677283Y-98754711D01*
X117573450Y-98958494D01*
X117502778Y-99176000D01*
X117502778Y-99176003D01*
X117467000Y-99401896D01*
X117467000Y-99630603D01*
X117502778Y-99856496D01*
X117502778Y-99856499D01*
X117573450Y-100074005D01*
X117573452Y-100074008D01*
X117677283Y-100277788D01*
X117811714Y-100462816D01*
X117973434Y-100624536D01*
X118042923Y-100675023D01*
X118057938Y-100685932D01*
X118100603Y-100741263D01*
X118106582Y-100810876D01*
X118073976Y-100872671D01*
X118057938Y-100886568D01*
X117973432Y-100947965D01*
X117811716Y-101109681D01*
X117811716Y-101109682D01*
X117811714Y-101109684D01*
X117753980Y-101189146D01*
X117677283Y-101294711D01*
X117573450Y-101498494D01*
X117502778Y-101716000D01*
X117502778Y-101716003D01*
X117467000Y-101941896D01*
X117467000Y-102170603D01*
X117502778Y-102396496D01*
X117502778Y-102396499D01*
X117573450Y-102614005D01*
X117573452Y-102614008D01*
X117677283Y-102817788D01*
X117811714Y-103002816D01*
X117973434Y-103164536D01*
X118035959Y-103209963D01*
X118057938Y-103225932D01*
X118100603Y-103281263D01*
X118106582Y-103350876D01*
X118073976Y-103412671D01*
X118057938Y-103426568D01*
X117973432Y-103487965D01*
X117811716Y-103649681D01*
X117811716Y-103649682D01*
X117811714Y-103649684D01*
X117753980Y-103729146D01*
X117677283Y-103834711D01*
X117573450Y-104038494D01*
X117502778Y-104256000D01*
X117502778Y-104256003D01*
X117502778Y-104256005D01*
X117467000Y-104481896D01*
X117467000Y-104710604D01*
X117478965Y-104786146D01*
X117502778Y-104936496D01*
X117502778Y-104936499D01*
X117573450Y-105154005D01*
X117573452Y-105154008D01*
X117677283Y-105357788D01*
X117811714Y-105542816D01*
X117973434Y-105704536D01*
X117980904Y-105709963D01*
X118057938Y-105765932D01*
X118100603Y-105821263D01*
X118106582Y-105890876D01*
X118073976Y-105952671D01*
X118057938Y-105966568D01*
X117973432Y-106027965D01*
X117811716Y-106189681D01*
X117811716Y-106189682D01*
X117811714Y-106189684D01*
X117753980Y-106269146D01*
X117677283Y-106374711D01*
X117573450Y-106578494D01*
X117502778Y-106796000D01*
X117502778Y-106796003D01*
X117467000Y-107021896D01*
X117467000Y-107250603D01*
X117502778Y-107476496D01*
X117502778Y-107476499D01*
X117573450Y-107694005D01*
X117605794Y-107757483D01*
X117677283Y-107897788D01*
X117811714Y-108082816D01*
X117973434Y-108244536D01*
X117973437Y-108244538D01*
X118058362Y-108306240D01*
X118101028Y-108361570D01*
X118107007Y-108431183D01*
X118086242Y-108470535D01*
X118084899Y-108487597D01*
X118683991Y-109086689D01*
X118619215Y-109113521D01*
X118515211Y-109183014D01*
X118426764Y-109271461D01*
X118357271Y-109375465D01*
X118330439Y-109440241D01*
X117731347Y-108841149D01*
X117731346Y-108841150D01*
X117677713Y-108914969D01*
X117573917Y-109118681D01*
X117503265Y-109336124D01*
X117503265Y-109336125D01*
X117467500Y-109561936D01*
X117467500Y-109790563D01*
X117503265Y-110016374D01*
X117503265Y-110016375D01*
X117573917Y-110233818D01*
X117677711Y-110437526D01*
X117731347Y-110511348D01*
X117731347Y-110511349D01*
X118330439Y-109912257D01*
X118357271Y-109977035D01*
X118426764Y-110081039D01*
X118515211Y-110169486D01*
X118619215Y-110238979D01*
X118683991Y-110265810D01*
X118084899Y-110864901D01*
X118086226Y-110881755D01*
X118101029Y-110900952D01*
X118107008Y-110970566D01*
X118074402Y-111032361D01*
X118058364Y-111046257D01*
X117973440Y-111107959D01*
X117973431Y-111107966D01*
X117811716Y-111269681D01*
X117811716Y-111269682D01*
X117811714Y-111269684D01*
X117807079Y-111276064D01*
X117677283Y-111454711D01*
X117573450Y-111658494D01*
X117502778Y-111876000D01*
X117502778Y-111876003D01*
X117467000Y-112101896D01*
X117467000Y-112330603D01*
X117502778Y-112556496D01*
X117502778Y-112556499D01*
X117573450Y-112774005D01*
X117573452Y-112774008D01*
X117677283Y-112977788D01*
X117811714Y-113162816D01*
X117973434Y-113324536D01*
X118158462Y-113458967D01*
X118362242Y-113562798D01*
X118362244Y-113562799D01*
X118579751Y-113633471D01*
X118579752Y-113633471D01*
X118579755Y-113633472D01*
X118805646Y-113669250D01*
X118805647Y-113669250D01*
X119034353Y-113669250D01*
X119034354Y-113669250D01*
X119260245Y-113633472D01*
X119260248Y-113633471D01*
X119260249Y-113633471D01*
X119477755Y-113562799D01*
X119477755Y-113562798D01*
X119477758Y-113562798D01*
X119681538Y-113458967D01*
X119866566Y-113324536D01*
X120028286Y-113162816D01*
X120162717Y-112977788D01*
X120266548Y-112774008D01*
X120337222Y-112556495D01*
X120373000Y-112330604D01*
X120373000Y-112101896D01*
X120337222Y-111876005D01*
X120337221Y-111876001D01*
X120337221Y-111876000D01*
X120266549Y-111658494D01*
X120162716Y-111454711D01*
X120028286Y-111269684D01*
X119866566Y-111107964D01*
X119781634Y-111046257D01*
X119738969Y-110990926D01*
X119732990Y-110921313D01*
X119753756Y-110881955D01*
X119755098Y-110864901D01*
X119156007Y-110265810D01*
X119220785Y-110238979D01*
X119324789Y-110169486D01*
X119413236Y-110081039D01*
X119482729Y-109977035D01*
X119509560Y-109912258D01*
X120108651Y-110511349D01*
X120108651Y-110511348D01*
X120162288Y-110437526D01*
X120266082Y-110233818D01*
X120336734Y-110016375D01*
X120336734Y-110016374D01*
X120372500Y-109790563D01*
X120372500Y-109561936D01*
X120336734Y-109336125D01*
X120336734Y-109336124D01*
X120266082Y-109118681D01*
X120162292Y-108914981D01*
X120162288Y-108914975D01*
X120108651Y-108841150D01*
X120108651Y-108841149D01*
X119509560Y-109440240D01*
X119482729Y-109375465D01*
X119413236Y-109271461D01*
X119324789Y-109183014D01*
X119220785Y-109113521D01*
X119156006Y-109086688D01*
X119755099Y-108487597D01*
X119753772Y-108470743D01*
X119738970Y-108451547D01*
X119732991Y-108381933D01*
X119765597Y-108320138D01*
X119781633Y-108306243D01*
X119866566Y-108244536D01*
X120028286Y-108082816D01*
X120162717Y-107897788D01*
X120266548Y-107694008D01*
X120299313Y-107593167D01*
X120337221Y-107476499D01*
X120337221Y-107476498D01*
X120337222Y-107476495D01*
X120373000Y-107250604D01*
X120373000Y-107021896D01*
X120337222Y-106796005D01*
X120337221Y-106796001D01*
X120337221Y-106796000D01*
X120266549Y-106578494D01*
X120266548Y-106578492D01*
X120162717Y-106374712D01*
X120028286Y-106189684D01*
X119866566Y-106027964D01*
X119782059Y-105966566D01*
X119739396Y-105911238D01*
X119733417Y-105841625D01*
X119766023Y-105779830D01*
X119782056Y-105765935D01*
X119866566Y-105704536D01*
X120028286Y-105542816D01*
X120162717Y-105357788D01*
X120266548Y-105154008D01*
X120281356Y-105108434D01*
X120337221Y-104936499D01*
X120337221Y-104936498D01*
X120337222Y-104936495D01*
X120373000Y-104710604D01*
X120373000Y-104481896D01*
X120337222Y-104256005D01*
X120337221Y-104256001D01*
X120337221Y-104256000D01*
X120266549Y-104038494D01*
X120162716Y-103834711D01*
X120162682Y-103834664D01*
X120028286Y-103649684D01*
X119866566Y-103487964D01*
X119782059Y-103426566D01*
X119739396Y-103371238D01*
X119733417Y-103301625D01*
X119766023Y-103239830D01*
X119782056Y-103225935D01*
X119866566Y-103164536D01*
X120028286Y-103002816D01*
X120162717Y-102817788D01*
X120266548Y-102614008D01*
X120324236Y-102436463D01*
X120337221Y-102396499D01*
X120337221Y-102396498D01*
X120337222Y-102396495D01*
X120373000Y-102170604D01*
X120373000Y-101941896D01*
X120337222Y-101716005D01*
X120337221Y-101716001D01*
X120337221Y-101716000D01*
X120266549Y-101498494D01*
X120266548Y-101498492D01*
X120162717Y-101294712D01*
X120028286Y-101109684D01*
X119866566Y-100947964D01*
X119782059Y-100886566D01*
X119739396Y-100831238D01*
X119733417Y-100761625D01*
X119766023Y-100699830D01*
X119782056Y-100685935D01*
X119866566Y-100624536D01*
X120028286Y-100462816D01*
X120162717Y-100277788D01*
X120266548Y-100074008D01*
X120337222Y-99856495D01*
X120373000Y-99630604D01*
X120373000Y-99401896D01*
X120337222Y-99176005D01*
X120337221Y-99176001D01*
X120337221Y-99176000D01*
X120266549Y-98958494D01*
X120266548Y-98958492D01*
X120162717Y-98754712D01*
X120028286Y-98569684D01*
X119866566Y-98407964D01*
X119782059Y-98346566D01*
X119739396Y-98291238D01*
X119733417Y-98221625D01*
X119766023Y-98159830D01*
X119782056Y-98145935D01*
X119866566Y-98084536D01*
X120028286Y-97922816D01*
X120162717Y-97737788D01*
X120266548Y-97534008D01*
X120337222Y-97316495D01*
X120373000Y-97090604D01*
X120373000Y-96861896D01*
X120337222Y-96636005D01*
X120337221Y-96636001D01*
X120337221Y-96636000D01*
X120266549Y-96418494D01*
X120230265Y-96347283D01*
X120162717Y-96214712D01*
X120028286Y-96029684D01*
X119866566Y-95867964D01*
X119782059Y-95806566D01*
X119739396Y-95751238D01*
X119733417Y-95681625D01*
X119766023Y-95619830D01*
X119782056Y-95605935D01*
X119866566Y-95544536D01*
X120028286Y-95382816D01*
X120162717Y-95197788D01*
X120266548Y-94994008D01*
X120266549Y-94994005D01*
X120337221Y-94776499D01*
X120337221Y-94776498D01*
X120337222Y-94776495D01*
X120373000Y-94550604D01*
X120373000Y-94321896D01*
X132707000Y-94321896D01*
X132707000Y-94550603D01*
X132742778Y-94776496D01*
X132742778Y-94776499D01*
X132813450Y-94994005D01*
X132813452Y-94994008D01*
X132917283Y-95197788D01*
X133051714Y-95382816D01*
X133213434Y-95544536D01*
X133282923Y-95595023D01*
X133297938Y-95605932D01*
X133340603Y-95661263D01*
X133346582Y-95730876D01*
X133313976Y-95792671D01*
X133297938Y-95806568D01*
X133213432Y-95867965D01*
X133051716Y-96029681D01*
X133051716Y-96029682D01*
X133051714Y-96029684D01*
X133015297Y-96079808D01*
X132917283Y-96214711D01*
X132813450Y-96418494D01*
X132742778Y-96636000D01*
X132742778Y-96636003D01*
X132707000Y-96861896D01*
X132707000Y-97090603D01*
X132742778Y-97316496D01*
X132742778Y-97316499D01*
X132813450Y-97534005D01*
X132912231Y-97727873D01*
X132917283Y-97737788D01*
X133051714Y-97922816D01*
X133213434Y-98084536D01*
X133276219Y-98130152D01*
X133297938Y-98145932D01*
X133340603Y-98201263D01*
X133346582Y-98270876D01*
X133313976Y-98332671D01*
X133297938Y-98346568D01*
X133213432Y-98407965D01*
X133051716Y-98569681D01*
X133051716Y-98569682D01*
X133051714Y-98569684D01*
X132993980Y-98649146D01*
X132917283Y-98754711D01*
X132813450Y-98958494D01*
X132742778Y-99176000D01*
X132742778Y-99176003D01*
X132707000Y-99401896D01*
X132707000Y-99630603D01*
X132742778Y-99856496D01*
X132742778Y-99856499D01*
X132813450Y-100074005D01*
X132813452Y-100074008D01*
X132917283Y-100277788D01*
X133051714Y-100462816D01*
X133213434Y-100624536D01*
X133282923Y-100675023D01*
X133297938Y-100685932D01*
X133340603Y-100741263D01*
X133346582Y-100810876D01*
X133313976Y-100872671D01*
X133297938Y-100886568D01*
X133213432Y-100947965D01*
X133051716Y-101109681D01*
X133051716Y-101109682D01*
X133051714Y-101109684D01*
X132993980Y-101189146D01*
X132917283Y-101294711D01*
X132813450Y-101498494D01*
X132742778Y-101716000D01*
X132742778Y-101716003D01*
X132707000Y-101941896D01*
X132707000Y-102170603D01*
X132742778Y-102396496D01*
X132742778Y-102396499D01*
X132813450Y-102614005D01*
X132813452Y-102614008D01*
X132917283Y-102817788D01*
X133051714Y-103002816D01*
X133213434Y-103164536D01*
X133275959Y-103209963D01*
X133297938Y-103225932D01*
X133340603Y-103281263D01*
X133346582Y-103350876D01*
X133313976Y-103412671D01*
X133297938Y-103426568D01*
X133213432Y-103487965D01*
X133051716Y-103649681D01*
X133051716Y-103649682D01*
X133051714Y-103649684D01*
X132993980Y-103729146D01*
X132917283Y-103834711D01*
X132813450Y-104038494D01*
X132742778Y-104256000D01*
X132742778Y-104256003D01*
X132742778Y-104256005D01*
X132707000Y-104481896D01*
X132707000Y-104710604D01*
X132718965Y-104786146D01*
X132742778Y-104936496D01*
X132742778Y-104936499D01*
X132813450Y-105154005D01*
X132813452Y-105154008D01*
X132917283Y-105357788D01*
X133051714Y-105542816D01*
X133213434Y-105704536D01*
X133220904Y-105709963D01*
X133297938Y-105765932D01*
X133340603Y-105821263D01*
X133346582Y-105890876D01*
X133313976Y-105952671D01*
X133297938Y-105966568D01*
X133213432Y-106027965D01*
X133051716Y-106189681D01*
X133051716Y-106189682D01*
X133051714Y-106189684D01*
X132993980Y-106269146D01*
X132917283Y-106374711D01*
X132813450Y-106578494D01*
X132742778Y-106796000D01*
X132742778Y-106796003D01*
X132707000Y-107021896D01*
X132707000Y-107250603D01*
X132742778Y-107476496D01*
X132742778Y-107476499D01*
X132813450Y-107694005D01*
X132845794Y-107757483D01*
X132917283Y-107897788D01*
X133051714Y-108082816D01*
X133213434Y-108244536D01*
X133282923Y-108295023D01*
X133297938Y-108305932D01*
X133340603Y-108361263D01*
X133346582Y-108430876D01*
X133313976Y-108492671D01*
X133297938Y-108506568D01*
X133213432Y-108567965D01*
X133051716Y-108729681D01*
X133051716Y-108729682D01*
X133051714Y-108729684D01*
X133023035Y-108769157D01*
X132917283Y-108914711D01*
X132813450Y-109118494D01*
X132742778Y-109336000D01*
X132742778Y-109336003D01*
X132707000Y-109561896D01*
X132707000Y-109790603D01*
X132742778Y-110016496D01*
X132742778Y-110016499D01*
X132813450Y-110234005D01*
X132856815Y-110319113D01*
X132917283Y-110437788D01*
X133051714Y-110622816D01*
X133213434Y-110784536D01*
X133282923Y-110835023D01*
X133297938Y-110845932D01*
X133340603Y-110901263D01*
X133346582Y-110970876D01*
X133313976Y-111032671D01*
X133297938Y-111046568D01*
X133213432Y-111107965D01*
X133051716Y-111269681D01*
X133051716Y-111269682D01*
X133051714Y-111269684D01*
X133047079Y-111276064D01*
X132917283Y-111454711D01*
X132813450Y-111658494D01*
X132742778Y-111876000D01*
X132742778Y-111876003D01*
X132707000Y-112101896D01*
X132707000Y-112330603D01*
X132742778Y-112556496D01*
X132742778Y-112556499D01*
X132813450Y-112774005D01*
X132813452Y-112774008D01*
X132917283Y-112977788D01*
X133051714Y-113162816D01*
X133213434Y-113324536D01*
X133398462Y-113458967D01*
X133602242Y-113562798D01*
X133602244Y-113562799D01*
X133819751Y-113633471D01*
X133819752Y-113633471D01*
X133819755Y-113633472D01*
X134045646Y-113669250D01*
X134045647Y-113669250D01*
X134274353Y-113669250D01*
X134274354Y-113669250D01*
X134500245Y-113633472D01*
X134500248Y-113633471D01*
X134500249Y-113633471D01*
X134717755Y-113562799D01*
X134717755Y-113562798D01*
X134717758Y-113562798D01*
X134921538Y-113458967D01*
X135106566Y-113324536D01*
X135268286Y-113162816D01*
X135402717Y-112977788D01*
X135506548Y-112774008D01*
X135577222Y-112556495D01*
X135613000Y-112330604D01*
X135613000Y-112101896D01*
X135577222Y-111876005D01*
X135577221Y-111876001D01*
X135577221Y-111876000D01*
X135506549Y-111658494D01*
X135402716Y-111454711D01*
X135268286Y-111269684D01*
X135106566Y-111107964D01*
X135022059Y-111046566D01*
X134979396Y-110991238D01*
X134973417Y-110921625D01*
X135006023Y-110859830D01*
X135022056Y-110845935D01*
X135106566Y-110784536D01*
X135268286Y-110622816D01*
X135402717Y-110437788D01*
X135506548Y-110234008D01*
X135552933Y-110091250D01*
X135577221Y-110016499D01*
X135577221Y-110016498D01*
X135577222Y-110016495D01*
X135613000Y-109790604D01*
X135613000Y-109561896D01*
X135577222Y-109336005D01*
X135577221Y-109336001D01*
X135577221Y-109336000D01*
X135506549Y-109118494D01*
X135496327Y-109098432D01*
X135402717Y-108914712D01*
X135268286Y-108729684D01*
X135106566Y-108567964D01*
X135022059Y-108506566D01*
X134979396Y-108451238D01*
X134973417Y-108381625D01*
X135006023Y-108319830D01*
X135022056Y-108305935D01*
X135106566Y-108244536D01*
X135268286Y-108082816D01*
X135402717Y-107897788D01*
X135506548Y-107694008D01*
X135539313Y-107593167D01*
X135577221Y-107476499D01*
X135577221Y-107476498D01*
X135577222Y-107476495D01*
X135613000Y-107250604D01*
X135613000Y-107021896D01*
X135577222Y-106796005D01*
X135577221Y-106796001D01*
X135577221Y-106796000D01*
X135506549Y-106578494D01*
X135506548Y-106578492D01*
X135402717Y-106374712D01*
X135268286Y-106189684D01*
X135106566Y-106027964D01*
X135022059Y-105966566D01*
X134979396Y-105911238D01*
X134973417Y-105841625D01*
X135006023Y-105779830D01*
X135022056Y-105765935D01*
X135106566Y-105704536D01*
X135268286Y-105542816D01*
X135402717Y-105357788D01*
X135506548Y-105154008D01*
X135521356Y-105108434D01*
X135577221Y-104936499D01*
X135577221Y-104936498D01*
X135577222Y-104936495D01*
X135613000Y-104710604D01*
X135613000Y-104481896D01*
X135577222Y-104256005D01*
X135577221Y-104256001D01*
X135577221Y-104256000D01*
X135506549Y-104038494D01*
X135402716Y-103834711D01*
X135402682Y-103834664D01*
X135268286Y-103649684D01*
X135106566Y-103487964D01*
X135022059Y-103426566D01*
X134979396Y-103371238D01*
X134973417Y-103301625D01*
X135006023Y-103239830D01*
X135022056Y-103225935D01*
X135106566Y-103164536D01*
X135268286Y-103002816D01*
X135402717Y-102817788D01*
X135506548Y-102614008D01*
X135564236Y-102436463D01*
X135577221Y-102396499D01*
X135577221Y-102396498D01*
X135577222Y-102396495D01*
X135613000Y-102170604D01*
X135613000Y-101941896D01*
X135577222Y-101716005D01*
X135577221Y-101716001D01*
X135577221Y-101716000D01*
X135506549Y-101498494D01*
X135506548Y-101498492D01*
X135402717Y-101294712D01*
X135268286Y-101109684D01*
X135106566Y-100947964D01*
X135022059Y-100886566D01*
X134979396Y-100831238D01*
X134973417Y-100761625D01*
X135006023Y-100699830D01*
X135022056Y-100685935D01*
X135106566Y-100624536D01*
X135268286Y-100462816D01*
X135402717Y-100277788D01*
X135506548Y-100074008D01*
X135577222Y-99856495D01*
X135613000Y-99630604D01*
X135613000Y-99401896D01*
X135577222Y-99176005D01*
X135577221Y-99176001D01*
X135577221Y-99176000D01*
X135506549Y-98958494D01*
X135506548Y-98958492D01*
X135402717Y-98754712D01*
X135268286Y-98569684D01*
X135106566Y-98407964D01*
X135022059Y-98346566D01*
X134979396Y-98291238D01*
X134973417Y-98221625D01*
X135006023Y-98159830D01*
X135022056Y-98145935D01*
X135106566Y-98084536D01*
X135268286Y-97922816D01*
X135402717Y-97737788D01*
X135506548Y-97534008D01*
X135577222Y-97316495D01*
X135613000Y-97090604D01*
X135613000Y-96861896D01*
X135577222Y-96636005D01*
X135577221Y-96636001D01*
X135577221Y-96636000D01*
X135506549Y-96418494D01*
X135470265Y-96347283D01*
X135402717Y-96214712D01*
X135268286Y-96029684D01*
X135106566Y-95867964D01*
X135022059Y-95806566D01*
X134979396Y-95751238D01*
X134973417Y-95681625D01*
X135006023Y-95619830D01*
X135022056Y-95605935D01*
X135106566Y-95544536D01*
X135268286Y-95382816D01*
X135402717Y-95197788D01*
X135506548Y-94994008D01*
X135506549Y-94994005D01*
X135577221Y-94776499D01*
X135577221Y-94776498D01*
X135577222Y-94776495D01*
X135613000Y-94550604D01*
X135613000Y-94321896D01*
X135577222Y-94096005D01*
X135577221Y-94096001D01*
X135577221Y-94096000D01*
X135506549Y-93878494D01*
X135402716Y-93674711D01*
X135268286Y-93489684D01*
X135106566Y-93327964D01*
X134921538Y-93193533D01*
X134717755Y-93089700D01*
X134500248Y-93019028D01*
X134330826Y-92992194D01*
X134274354Y-92983250D01*
X134045646Y-92983250D01*
X133970349Y-92995176D01*
X133819753Y-93019028D01*
X133819750Y-93019028D01*
X133602244Y-93089700D01*
X133398461Y-93193533D01*
X133292896Y-93270230D01*
X133213434Y-93327964D01*
X133213432Y-93327966D01*
X133213431Y-93327966D01*
X133051716Y-93489681D01*
X133051716Y-93489682D01*
X133051714Y-93489684D01*
X132993980Y-93569146D01*
X132917283Y-93674711D01*
X132813450Y-93878494D01*
X132742778Y-94096000D01*
X132742778Y-94096003D01*
X132707000Y-94321896D01*
X120373000Y-94321896D01*
X120337222Y-94096005D01*
X120337221Y-94096001D01*
X120337221Y-94096000D01*
X120266549Y-93878494D01*
X120162716Y-93674711D01*
X120028286Y-93489684D01*
X119866566Y-93327964D01*
X119681538Y-93193533D01*
X119477755Y-93089700D01*
X119260248Y-93019028D01*
X119090826Y-92992194D01*
X119034354Y-92983250D01*
X118805646Y-92983250D01*
X118730349Y-92995176D01*
X118579753Y-93019028D01*
X118579750Y-93019028D01*
X118362244Y-93089700D01*
X118158461Y-93193533D01*
X118052896Y-93270230D01*
X117973434Y-93327964D01*
X117973432Y-93327966D01*
X117973431Y-93327966D01*
X117811716Y-93489681D01*
X117811716Y-93489682D01*
X117811714Y-93489684D01*
X117753980Y-93569146D01*
X117677283Y-93674711D01*
X117573450Y-93878494D01*
X117502778Y-94096000D01*
X117502778Y-94096003D01*
X117467000Y-94321896D01*
X80000500Y-94321896D01*
X80000500Y-85324132D01*
X85325669Y-85324132D01*
X85325670Y-85324133D01*
X85351059Y-85342579D01*
X85519362Y-85428335D01*
X85698997Y-85486701D01*
X85885553Y-85516250D01*
X86074447Y-85516250D01*
X86261002Y-85486701D01*
X86440637Y-85428335D01*
X86608937Y-85342581D01*
X86634328Y-85324133D01*
X86634328Y-85324132D01*
X85980001Y-84669804D01*
X85980000Y-84669804D01*
X85325669Y-85324132D01*
X80000500Y-85324132D01*
X80000500Y-84221802D01*
X84780000Y-84221802D01*
X84780000Y-84410697D01*
X84809548Y-84597252D01*
X84867914Y-84776887D01*
X84953666Y-84945183D01*
X84972116Y-84970578D01*
X85626446Y-84316250D01*
X85626446Y-84316249D01*
X85580369Y-84270172D01*
X85630000Y-84270172D01*
X85630000Y-84362328D01*
X85653852Y-84451345D01*
X85699930Y-84531155D01*
X85765095Y-84596320D01*
X85844905Y-84642398D01*
X85933922Y-84666250D01*
X86026078Y-84666250D01*
X86115095Y-84642398D01*
X86194905Y-84596320D01*
X86260070Y-84531155D01*
X86306148Y-84451345D01*
X86330000Y-84362328D01*
X86330000Y-84316249D01*
X86333554Y-84316249D01*
X86333554Y-84316250D01*
X86987882Y-84970578D01*
X86987883Y-84970578D01*
X87006331Y-84945187D01*
X87092085Y-84776887D01*
X87150451Y-84597252D01*
X87180000Y-84410697D01*
X87180000Y-84221802D01*
X87179994Y-84221763D01*
X89859500Y-84221763D01*
X89859500Y-84410736D01*
X89889059Y-84597368D01*
X89947454Y-84777086D01*
X90024520Y-84928335D01*
X90033240Y-84945449D01*
X90144310Y-85098323D01*
X90277927Y-85231940D01*
X90430801Y-85343010D01*
X90500788Y-85378670D01*
X90599163Y-85428795D01*
X90599165Y-85428795D01*
X90599168Y-85428797D01*
X90690818Y-85458576D01*
X90778881Y-85487190D01*
X90965514Y-85516750D01*
X90965519Y-85516750D01*
X91154486Y-85516750D01*
X91341118Y-85487190D01*
X91342623Y-85486701D01*
X91520832Y-85428797D01*
X91689199Y-85343010D01*
X91842073Y-85231940D01*
X91975690Y-85098323D01*
X92086760Y-84945449D01*
X92172547Y-84777082D01*
X92230940Y-84597368D01*
X92241427Y-84531155D01*
X92260500Y-84410736D01*
X92260500Y-84221763D01*
X92230940Y-84035131D01*
X92172545Y-83855413D01*
X92104466Y-83721802D01*
X92086760Y-83687051D01*
X91975690Y-83534177D01*
X91842073Y-83400560D01*
X91797788Y-83368385D01*
X94039500Y-83368385D01*
X94039500Y-85264120D01*
X94039501Y-85264126D01*
X94045908Y-85323733D01*
X94096202Y-85458578D01*
X94096206Y-85458585D01*
X94182452Y-85573794D01*
X94182455Y-85573797D01*
X94297664Y-85660043D01*
X94297671Y-85660047D01*
X94432517Y-85710341D01*
X94432516Y-85710341D01*
X94439444Y-85711085D01*
X94492127Y-85716750D01*
X96387872Y-85716749D01*
X96447483Y-85710341D01*
X96582331Y-85660046D01*
X96697546Y-85573796D01*
X96783796Y-85458581D01*
X96794905Y-85428797D01*
X96813601Y-85378670D01*
X96855471Y-85322736D01*
X96920936Y-85298318D01*
X96989209Y-85313169D01*
X97017464Y-85334321D01*
X97067636Y-85384493D01*
X97067641Y-85384497D01*
X97223192Y-85497510D01*
X97245978Y-85514065D01*
X97374375Y-85579487D01*
X97442393Y-85614145D01*
X97442396Y-85614146D01*
X97547221Y-85648205D01*
X97652049Y-85682265D01*
X97869778Y-85716750D01*
X97869779Y-85716750D01*
X98090221Y-85716750D01*
X98090222Y-85716750D01*
X98307951Y-85682265D01*
X98517606Y-85614145D01*
X98714022Y-85514065D01*
X98892365Y-85384492D01*
X98952725Y-85324132D01*
X122020669Y-85324132D01*
X122020670Y-85324133D01*
X122046059Y-85342579D01*
X122214362Y-85428335D01*
X122393997Y-85486701D01*
X122580553Y-85516250D01*
X122769447Y-85516250D01*
X122956002Y-85486701D01*
X123135637Y-85428335D01*
X123303937Y-85342581D01*
X123329328Y-85324133D01*
X123329328Y-85324132D01*
X122675001Y-84669804D01*
X122675000Y-84669804D01*
X122020669Y-85324132D01*
X98952725Y-85324132D01*
X99048242Y-85228615D01*
X99177815Y-85050272D01*
X99277895Y-84853856D01*
X99284242Y-84834321D01*
X99287553Y-84824132D01*
X104325669Y-84824132D01*
X104325670Y-84824133D01*
X104351059Y-84842579D01*
X104519362Y-84928335D01*
X104698997Y-84986701D01*
X104885553Y-85016250D01*
X105074447Y-85016250D01*
X105261002Y-84986701D01*
X105440637Y-84928335D01*
X105608937Y-84842581D01*
X105634328Y-84824133D01*
X105634328Y-84824132D01*
X104980001Y-84169804D01*
X104980000Y-84169804D01*
X104325669Y-84824132D01*
X99287553Y-84824132D01*
X99315358Y-84738556D01*
X99315358Y-84738555D01*
X99337696Y-84669804D01*
X99346015Y-84644201D01*
X99380500Y-84426472D01*
X99380500Y-84206028D01*
X99346015Y-83988299D01*
X99290114Y-83816250D01*
X99277896Y-83778646D01*
X99277893Y-83778638D01*
X99275138Y-83773232D01*
X99275137Y-83773231D01*
X99248932Y-83721802D01*
X103780000Y-83721802D01*
X103780000Y-83910697D01*
X103809548Y-84097252D01*
X103867914Y-84276887D01*
X103953666Y-84445183D01*
X103972116Y-84470578D01*
X104626446Y-83816250D01*
X104626446Y-83816249D01*
X104580369Y-83770172D01*
X104630000Y-83770172D01*
X104630000Y-83862328D01*
X104653852Y-83951345D01*
X104699930Y-84031155D01*
X104765095Y-84096320D01*
X104844905Y-84142398D01*
X104933922Y-84166250D01*
X105026078Y-84166250D01*
X105115095Y-84142398D01*
X105194905Y-84096320D01*
X105260070Y-84031155D01*
X105306148Y-83951345D01*
X105330000Y-83862328D01*
X105330000Y-83816249D01*
X105333554Y-83816249D01*
X105333554Y-83816250D01*
X105987882Y-84470578D01*
X105987883Y-84470578D01*
X106006331Y-84445187D01*
X106092085Y-84276887D01*
X106150451Y-84097252D01*
X106180000Y-83910697D01*
X106180000Y-83721802D01*
X106179994Y-83721763D01*
X108859500Y-83721763D01*
X108859500Y-83910736D01*
X108889059Y-84097368D01*
X108947454Y-84277086D01*
X109015533Y-84410697D01*
X109033240Y-84445449D01*
X109144310Y-84598323D01*
X109277927Y-84731940D01*
X109430801Y-84843010D01*
X109452076Y-84853850D01*
X109599163Y-84928795D01*
X109599165Y-84928795D01*
X109599168Y-84928797D01*
X109690818Y-84958576D01*
X109778881Y-84987190D01*
X109965514Y-85016750D01*
X109965519Y-85016750D01*
X110154486Y-85016750D01*
X110341118Y-84987190D01*
X110392244Y-84970578D01*
X110520832Y-84928797D01*
X110689199Y-84843010D01*
X110842073Y-84731940D01*
X110975690Y-84598323D01*
X111086760Y-84445449D01*
X111172547Y-84277082D01*
X111230940Y-84097368D01*
X111240797Y-84035132D01*
X111260500Y-83910736D01*
X111260500Y-83721763D01*
X111230940Y-83535131D01*
X111187215Y-83400562D01*
X111172547Y-83355418D01*
X111172545Y-83355415D01*
X111172545Y-83355413D01*
X111095245Y-83203704D01*
X111086760Y-83187051D01*
X110975690Y-83034177D01*
X110842073Y-82900560D01*
X110797788Y-82868385D01*
X113539500Y-82868385D01*
X113539500Y-84764120D01*
X113539501Y-84764126D01*
X113545908Y-84823733D01*
X113596202Y-84958578D01*
X113596206Y-84958585D01*
X113682452Y-85073794D01*
X113682455Y-85073797D01*
X113797664Y-85160043D01*
X113797671Y-85160047D01*
X113932517Y-85210341D01*
X113932516Y-85210341D01*
X113939444Y-85211085D01*
X113992127Y-85216750D01*
X115887872Y-85216749D01*
X115947483Y-85210341D01*
X116082331Y-85160046D01*
X116197546Y-85073796D01*
X116283796Y-84958581D01*
X116294905Y-84928797D01*
X116313601Y-84878670D01*
X116355471Y-84822736D01*
X116420936Y-84798318D01*
X116489209Y-84813169D01*
X116517464Y-84834321D01*
X116567636Y-84884493D01*
X116567641Y-84884497D01*
X116723192Y-84997510D01*
X116745978Y-85014065D01*
X116874375Y-85079487D01*
X116942393Y-85114145D01*
X116942396Y-85114146D01*
X116992841Y-85130536D01*
X117152049Y-85182265D01*
X117369778Y-85216750D01*
X117369779Y-85216750D01*
X117590221Y-85216750D01*
X117590222Y-85216750D01*
X117807951Y-85182265D01*
X117855002Y-85166977D01*
X117879734Y-85158942D01*
X118017603Y-85114146D01*
X118017606Y-85114145D01*
X118048658Y-85098323D01*
X118214022Y-85014065D01*
X118392365Y-84884492D01*
X118548242Y-84728615D01*
X118677815Y-84550272D01*
X118777895Y-84353856D01*
X118802840Y-84277082D01*
X118820802Y-84221802D01*
X121475000Y-84221802D01*
X121475000Y-84410697D01*
X121504548Y-84597252D01*
X121562914Y-84776887D01*
X121648666Y-84945183D01*
X121667116Y-84970578D01*
X122321446Y-84316250D01*
X122321446Y-84316249D01*
X122275369Y-84270172D01*
X122325000Y-84270172D01*
X122325000Y-84362328D01*
X122348852Y-84451345D01*
X122394930Y-84531155D01*
X122460095Y-84596320D01*
X122539905Y-84642398D01*
X122628922Y-84666250D01*
X122721078Y-84666250D01*
X122810095Y-84642398D01*
X122889905Y-84596320D01*
X122955070Y-84531155D01*
X123001148Y-84451345D01*
X123025000Y-84362328D01*
X123025000Y-84316249D01*
X123028554Y-84316249D01*
X123028554Y-84316250D01*
X123682882Y-84970578D01*
X123682883Y-84970578D01*
X123701331Y-84945187D01*
X123787085Y-84776887D01*
X123845451Y-84597252D01*
X123875000Y-84410697D01*
X123875000Y-84221802D01*
X123874994Y-84221763D01*
X126554500Y-84221763D01*
X126554500Y-84410736D01*
X126584059Y-84597368D01*
X126642454Y-84777086D01*
X126719520Y-84928335D01*
X126728240Y-84945449D01*
X126839310Y-85098323D01*
X126972927Y-85231940D01*
X127125801Y-85343010D01*
X127195788Y-85378670D01*
X127294163Y-85428795D01*
X127294165Y-85428795D01*
X127294168Y-85428797D01*
X127385818Y-85458576D01*
X127473881Y-85487190D01*
X127660514Y-85516750D01*
X127660519Y-85516750D01*
X127849486Y-85516750D01*
X128036118Y-85487190D01*
X128037623Y-85486701D01*
X128215832Y-85428797D01*
X128384199Y-85343010D01*
X128537073Y-85231940D01*
X128670690Y-85098323D01*
X128781760Y-84945449D01*
X128867547Y-84777082D01*
X128925940Y-84597368D01*
X128936427Y-84531155D01*
X128955500Y-84410736D01*
X128955500Y-84221763D01*
X128925940Y-84035131D01*
X128867545Y-83855413D01*
X128799466Y-83721802D01*
X128781760Y-83687051D01*
X128670690Y-83534177D01*
X128537073Y-83400560D01*
X128492788Y-83368385D01*
X131499500Y-83368385D01*
X131499500Y-85264120D01*
X131499501Y-85264126D01*
X131505908Y-85323733D01*
X131556202Y-85458578D01*
X131556206Y-85458585D01*
X131642452Y-85573794D01*
X131642455Y-85573797D01*
X131757664Y-85660043D01*
X131757671Y-85660047D01*
X131892517Y-85710341D01*
X131892516Y-85710341D01*
X131899444Y-85711085D01*
X131952127Y-85716750D01*
X133847872Y-85716749D01*
X133907483Y-85710341D01*
X134042331Y-85660046D01*
X134157546Y-85573796D01*
X134243796Y-85458581D01*
X134254905Y-85428797D01*
X134273601Y-85378670D01*
X134315471Y-85322736D01*
X134380936Y-85298318D01*
X134449209Y-85313169D01*
X134477464Y-85334321D01*
X134527636Y-85384493D01*
X134527641Y-85384497D01*
X134683192Y-85497510D01*
X134705978Y-85514065D01*
X134834375Y-85579487D01*
X134902393Y-85614145D01*
X134902396Y-85614146D01*
X135007221Y-85648205D01*
X135112049Y-85682265D01*
X135329778Y-85716750D01*
X135329779Y-85716750D01*
X135550221Y-85716750D01*
X135550222Y-85716750D01*
X135767951Y-85682265D01*
X135977606Y-85614145D01*
X136174022Y-85514065D01*
X136352365Y-85384492D01*
X136508242Y-85228615D01*
X136637815Y-85050272D01*
X136737895Y-84853856D01*
X136806015Y-84644201D01*
X136840500Y-84426472D01*
X136840500Y-84206028D01*
X136806015Y-83988299D01*
X136750114Y-83816250D01*
X136737896Y-83778646D01*
X136737895Y-83778643D01*
X136700895Y-83706028D01*
X136637815Y-83582228D01*
X136553553Y-83466250D01*
X136508247Y-83403891D01*
X136508243Y-83403886D01*
X136352363Y-83248006D01*
X136352358Y-83248002D01*
X136174025Y-83118437D01*
X136174024Y-83118436D01*
X136174022Y-83118435D01*
X136056791Y-83058702D01*
X135977606Y-83018354D01*
X135977603Y-83018353D01*
X135767952Y-82950235D01*
X135659086Y-82932992D01*
X135550222Y-82915750D01*
X135329778Y-82915750D01*
X135257201Y-82927245D01*
X135112047Y-82950235D01*
X134902396Y-83018353D01*
X134902393Y-83018354D01*
X134705974Y-83118437D01*
X134527641Y-83248002D01*
X134527636Y-83248006D01*
X134477463Y-83298179D01*
X134416140Y-83331663D01*
X134346448Y-83326678D01*
X134290515Y-83284807D01*
X134273601Y-83253830D01*
X134243797Y-83173921D01*
X134243793Y-83173914D01*
X134157547Y-83058705D01*
X134157544Y-83058702D01*
X134042335Y-82972456D01*
X134042328Y-82972452D01*
X133907482Y-82922158D01*
X133907483Y-82922158D01*
X133847883Y-82915751D01*
X133847881Y-82915750D01*
X133847873Y-82915750D01*
X133847864Y-82915750D01*
X131952129Y-82915750D01*
X131952123Y-82915751D01*
X131892516Y-82922158D01*
X131757671Y-82972452D01*
X131757664Y-82972456D01*
X131642455Y-83058702D01*
X131642452Y-83058705D01*
X131556206Y-83173914D01*
X131556202Y-83173921D01*
X131505908Y-83308767D01*
X131499501Y-83368366D01*
X131499500Y-83368385D01*
X128492788Y-83368385D01*
X128384199Y-83289490D01*
X128375008Y-83284807D01*
X128215836Y-83203704D01*
X128036118Y-83145309D01*
X127849486Y-83115750D01*
X127849481Y-83115750D01*
X127660519Y-83115750D01*
X127660514Y-83115750D01*
X127473881Y-83145309D01*
X127294163Y-83203704D01*
X127125800Y-83289490D01*
X127074616Y-83326678D01*
X126972927Y-83400560D01*
X126972925Y-83400562D01*
X126972924Y-83400562D01*
X126839312Y-83534174D01*
X126839312Y-83534175D01*
X126839310Y-83534177D01*
X126838533Y-83535247D01*
X126728240Y-83687050D01*
X126642454Y-83855413D01*
X126584059Y-84035131D01*
X126554500Y-84221763D01*
X123874994Y-84221763D01*
X123845451Y-84035247D01*
X123787085Y-83855612D01*
X123701329Y-83687309D01*
X123682883Y-83661920D01*
X123682882Y-83661919D01*
X123028554Y-84316249D01*
X123025000Y-84316249D01*
X123025000Y-84270172D01*
X123001148Y-84181155D01*
X122955070Y-84101345D01*
X122889905Y-84036180D01*
X122810095Y-83990102D01*
X122721078Y-83966250D01*
X122628922Y-83966250D01*
X122539905Y-83990102D01*
X122460095Y-84036180D01*
X122394930Y-84101345D01*
X122348852Y-84181155D01*
X122325000Y-84270172D01*
X122275369Y-84270172D01*
X121667116Y-83661919D01*
X121667116Y-83661920D01*
X121648669Y-83687310D01*
X121562914Y-83855612D01*
X121504548Y-84035247D01*
X121475000Y-84221802D01*
X118820802Y-84221802D01*
X118834833Y-84178618D01*
X118834833Y-84178617D01*
X118846014Y-84144204D01*
X118846013Y-84144204D01*
X118846015Y-84144201D01*
X118880500Y-83926472D01*
X118880500Y-83706028D01*
X118846015Y-83488299D01*
X118838851Y-83466250D01*
X118815358Y-83393942D01*
X118787553Y-83308366D01*
X122020669Y-83308366D01*
X122675000Y-83962696D01*
X122675001Y-83962696D01*
X123329328Y-83308366D01*
X123303933Y-83289916D01*
X123135637Y-83204164D01*
X122956002Y-83145798D01*
X122769447Y-83116250D01*
X122580553Y-83116250D01*
X122393997Y-83145798D01*
X122214362Y-83204164D01*
X122046060Y-83289919D01*
X122020670Y-83308366D01*
X122020669Y-83308366D01*
X118787553Y-83308366D01*
X118777896Y-83278646D01*
X118777895Y-83278643D01*
X118739710Y-83203703D01*
X118677815Y-83082228D01*
X118631408Y-83018354D01*
X118548247Y-82903891D01*
X118548243Y-82903886D01*
X118392363Y-82748006D01*
X118392358Y-82748002D01*
X118214025Y-82618437D01*
X118214024Y-82618436D01*
X118214022Y-82618435D01*
X118096791Y-82558702D01*
X118017606Y-82518354D01*
X118017603Y-82518353D01*
X117807952Y-82450235D01*
X117699086Y-82432992D01*
X117590222Y-82415750D01*
X117369778Y-82415750D01*
X117297201Y-82427245D01*
X117152047Y-82450235D01*
X116942396Y-82518353D01*
X116942393Y-82518354D01*
X116745974Y-82618437D01*
X116567641Y-82748002D01*
X116567636Y-82748006D01*
X116517463Y-82798179D01*
X116456140Y-82831663D01*
X116386448Y-82826678D01*
X116330515Y-82784807D01*
X116313601Y-82753830D01*
X116283797Y-82673921D01*
X116283793Y-82673914D01*
X116197547Y-82558705D01*
X116197544Y-82558702D01*
X116082335Y-82472456D01*
X116082328Y-82472452D01*
X115947482Y-82422158D01*
X115947483Y-82422158D01*
X115887883Y-82415751D01*
X115887881Y-82415750D01*
X115887873Y-82415750D01*
X115887864Y-82415750D01*
X113992129Y-82415750D01*
X113992123Y-82415751D01*
X113932516Y-82422158D01*
X113797671Y-82472452D01*
X113797664Y-82472456D01*
X113682455Y-82558702D01*
X113682452Y-82558705D01*
X113596206Y-82673914D01*
X113596202Y-82673921D01*
X113545908Y-82808767D01*
X113539501Y-82868366D01*
X113539500Y-82868385D01*
X110797788Y-82868385D01*
X110689199Y-82789490D01*
X110680008Y-82784807D01*
X110520836Y-82703704D01*
X110341118Y-82645309D01*
X110154486Y-82615750D01*
X110154481Y-82615750D01*
X109965519Y-82615750D01*
X109965514Y-82615750D01*
X109778881Y-82645309D01*
X109599163Y-82703704D01*
X109430800Y-82789490D01*
X109379616Y-82826678D01*
X109277927Y-82900560D01*
X109277925Y-82900562D01*
X109277924Y-82900562D01*
X109144312Y-83034174D01*
X109144312Y-83034175D01*
X109144310Y-83034177D01*
X109109402Y-83082224D01*
X109033240Y-83187050D01*
X108947454Y-83355413D01*
X108889059Y-83535131D01*
X108859500Y-83721763D01*
X106179994Y-83721763D01*
X106150451Y-83535247D01*
X106092085Y-83355612D01*
X106006329Y-83187309D01*
X105987883Y-83161920D01*
X105987882Y-83161919D01*
X105333554Y-83816249D01*
X105330000Y-83816249D01*
X105330000Y-83770172D01*
X105306148Y-83681155D01*
X105260070Y-83601345D01*
X105194905Y-83536180D01*
X105115095Y-83490102D01*
X105026078Y-83466250D01*
X104933922Y-83466250D01*
X104844905Y-83490102D01*
X104765095Y-83536180D01*
X104699930Y-83601345D01*
X104653852Y-83681155D01*
X104630000Y-83770172D01*
X104580369Y-83770172D01*
X103972116Y-83161919D01*
X103972116Y-83161920D01*
X103953669Y-83187310D01*
X103867914Y-83355612D01*
X103809548Y-83535247D01*
X103780000Y-83721802D01*
X99248932Y-83721802D01*
X99240895Y-83706028D01*
X99177815Y-83582228D01*
X99093553Y-83466250D01*
X99048247Y-83403891D01*
X99048243Y-83403886D01*
X98892363Y-83248006D01*
X98892358Y-83248002D01*
X98714025Y-83118437D01*
X98714024Y-83118436D01*
X98714022Y-83118435D01*
X98596791Y-83058702D01*
X98517606Y-83018354D01*
X98517603Y-83018353D01*
X98379728Y-82973556D01*
X98379727Y-82973555D01*
X98307953Y-82950235D01*
X98307954Y-82950235D01*
X98144654Y-82924371D01*
X98090222Y-82915750D01*
X97869778Y-82915750D01*
X97797201Y-82927245D01*
X97652047Y-82950235D01*
X97442396Y-83018353D01*
X97442393Y-83018354D01*
X97245974Y-83118437D01*
X97067641Y-83248002D01*
X97067636Y-83248006D01*
X97017463Y-83298179D01*
X96956140Y-83331663D01*
X96886448Y-83326678D01*
X96830515Y-83284807D01*
X96813601Y-83253830D01*
X96783797Y-83173921D01*
X96783793Y-83173914D01*
X96697547Y-83058705D01*
X96697544Y-83058702D01*
X96582335Y-82972456D01*
X96582328Y-82972452D01*
X96447482Y-82922158D01*
X96447483Y-82922158D01*
X96387883Y-82915751D01*
X96387881Y-82915750D01*
X96387873Y-82915750D01*
X96387864Y-82915750D01*
X94492129Y-82915750D01*
X94492123Y-82915751D01*
X94432516Y-82922158D01*
X94297671Y-82972452D01*
X94297664Y-82972456D01*
X94182455Y-83058702D01*
X94182452Y-83058705D01*
X94096206Y-83173914D01*
X94096202Y-83173921D01*
X94045908Y-83308767D01*
X94039501Y-83368366D01*
X94039500Y-83368385D01*
X91797788Y-83368385D01*
X91689199Y-83289490D01*
X91680008Y-83284807D01*
X91520836Y-83203704D01*
X91341118Y-83145309D01*
X91154486Y-83115750D01*
X91154481Y-83115750D01*
X90965519Y-83115750D01*
X90965514Y-83115750D01*
X90778881Y-83145309D01*
X90599163Y-83203704D01*
X90430800Y-83289490D01*
X90379616Y-83326678D01*
X90277927Y-83400560D01*
X90277925Y-83400562D01*
X90277924Y-83400562D01*
X90144312Y-83534174D01*
X90144312Y-83534175D01*
X90144310Y-83534177D01*
X90143533Y-83535247D01*
X90033240Y-83687050D01*
X89947454Y-83855413D01*
X89889059Y-84035131D01*
X89859500Y-84221763D01*
X87179994Y-84221763D01*
X87150451Y-84035247D01*
X87092085Y-83855612D01*
X87006329Y-83687309D01*
X86987883Y-83661920D01*
X86987882Y-83661919D01*
X86333554Y-84316249D01*
X86330000Y-84316249D01*
X86330000Y-84270172D01*
X86306148Y-84181155D01*
X86260070Y-84101345D01*
X86194905Y-84036180D01*
X86115095Y-83990102D01*
X86026078Y-83966250D01*
X85933922Y-83966250D01*
X85844905Y-83990102D01*
X85765095Y-84036180D01*
X85699930Y-84101345D01*
X85653852Y-84181155D01*
X85630000Y-84270172D01*
X85580369Y-84270172D01*
X84972116Y-83661919D01*
X84972116Y-83661920D01*
X84953669Y-83687310D01*
X84867914Y-83855612D01*
X84809548Y-84035247D01*
X84780000Y-84221802D01*
X80000500Y-84221802D01*
X80000500Y-83308366D01*
X85325669Y-83308366D01*
X85980000Y-83962696D01*
X85980001Y-83962696D01*
X86634328Y-83308366D01*
X86608933Y-83289916D01*
X86440637Y-83204164D01*
X86261002Y-83145798D01*
X86074447Y-83116250D01*
X85885553Y-83116250D01*
X85698997Y-83145798D01*
X85519362Y-83204164D01*
X85351060Y-83289919D01*
X85325670Y-83308366D01*
X85325669Y-83308366D01*
X80000500Y-83308366D01*
X80000500Y-82808366D01*
X104325669Y-82808366D01*
X104980000Y-83462696D01*
X104980001Y-83462696D01*
X105634328Y-82808366D01*
X105608933Y-82789916D01*
X105440637Y-82704164D01*
X105261002Y-82645798D01*
X105074447Y-82616250D01*
X104885553Y-82616250D01*
X104698997Y-82645798D01*
X104519362Y-82704164D01*
X104351060Y-82789919D01*
X104325670Y-82808366D01*
X104325669Y-82808366D01*
X80000500Y-82808366D01*
X80000500Y-72628992D01*
X95109500Y-72628992D01*
X95109500Y-72831007D01*
X95148907Y-73029119D01*
X95148909Y-73029127D01*
X95226213Y-73215755D01*
X95279904Y-73296109D01*
X95300782Y-73362787D01*
X95282297Y-73430167D01*
X95279904Y-73433891D01*
X95226213Y-73514244D01*
X95148909Y-73700872D01*
X95148907Y-73700880D01*
X95109500Y-73898992D01*
X95109500Y-74101007D01*
X95148907Y-74299119D01*
X95148910Y-74299131D01*
X95182547Y-74380338D01*
X95190016Y-74449807D01*
X95170405Y-74494864D01*
X95170895Y-74495132D01*
X95167910Y-74500596D01*
X95167260Y-74502092D01*
X95166646Y-74502911D01*
X95166645Y-74502913D01*
X95116403Y-74637620D01*
X95116401Y-74637627D01*
X95110000Y-74697155D01*
X95110000Y-75020000D01*
X95994134Y-75020000D01*
X96018326Y-75022383D01*
X96021123Y-75022939D01*
X96033995Y-75025499D01*
X96033996Y-75025500D01*
X96033997Y-75025500D01*
X96074170Y-75025500D01*
X96059925Y-75039745D01*
X96010556Y-75125255D01*
X95985000Y-75220630D01*
X95985000Y-75319370D01*
X96010556Y-75414745D01*
X96059925Y-75500255D01*
X96079670Y-75520000D01*
X95110000Y-75520000D01*
X95110000Y-75842844D01*
X95116401Y-75902372D01*
X95116403Y-75902379D01*
X95166645Y-76037086D01*
X95166649Y-76037093D01*
X95252809Y-76152187D01*
X95252812Y-76152190D01*
X95367906Y-76238350D01*
X95367913Y-76238354D01*
X95502620Y-76288596D01*
X95502627Y-76288598D01*
X95562155Y-76294999D01*
X95562172Y-76295000D01*
X96110000Y-76295000D01*
X96110000Y-75550330D01*
X96129745Y-75570075D01*
X96215255Y-75619444D01*
X96310630Y-75645000D01*
X96409370Y-75645000D01*
X96504745Y-75619444D01*
X96590255Y-75570075D01*
X96610000Y-75550330D01*
X96610000Y-76295000D01*
X97157828Y-76295000D01*
X97157844Y-76294999D01*
X97217372Y-76288598D01*
X97217379Y-76288596D01*
X97352086Y-76238354D01*
X97352093Y-76238350D01*
X97467187Y-76152190D01*
X97467190Y-76152187D01*
X97553350Y-76037093D01*
X97553354Y-76037086D01*
X97577796Y-75971555D01*
X97603596Y-75902379D01*
X97603598Y-75902372D01*
X97609999Y-75842844D01*
X97610000Y-75842827D01*
X97610000Y-75520000D01*
X96640330Y-75520000D01*
X96660075Y-75500255D01*
X96709444Y-75414745D01*
X96735000Y-75319370D01*
X96735000Y-75220630D01*
X96709444Y-75125255D01*
X96660075Y-75039745D01*
X96645830Y-75025500D01*
X96686004Y-75025500D01*
X96686004Y-75025499D01*
X96699473Y-75022820D01*
X96701674Y-75022383D01*
X96725866Y-75020000D01*
X97610000Y-75020000D01*
X97610000Y-74697172D01*
X97609999Y-74697155D01*
X97603598Y-74637627D01*
X97603596Y-74637620D01*
X97553354Y-74502913D01*
X97553353Y-74502911D01*
X97552745Y-74502099D01*
X97552390Y-74501148D01*
X97549103Y-74495128D01*
X97549968Y-74494655D01*
X97528329Y-74436634D01*
X97537452Y-74380338D01*
X97571091Y-74299127D01*
X97610500Y-74101003D01*
X97610500Y-73898997D01*
X97571091Y-73700873D01*
X97493786Y-73514244D01*
X97440094Y-73433889D01*
X97435948Y-73420647D01*
X97427508Y-73409632D01*
X97425713Y-73387962D01*
X97419217Y-73367214D01*
X97422769Y-73352400D01*
X97421743Y-73340001D01*
X97431122Y-73317567D01*
X97433706Y-73306796D01*
X97436629Y-73301296D01*
X97493786Y-73215756D01*
X97510568Y-73175242D01*
X110189500Y-73175242D01*
X110189500Y-73377257D01*
X110228907Y-73575369D01*
X110228909Y-73575377D01*
X110306213Y-73762005D01*
X110359904Y-73842359D01*
X110380782Y-73909037D01*
X110362297Y-73976417D01*
X110359904Y-73980141D01*
X110306213Y-74060494D01*
X110228909Y-74247122D01*
X110228907Y-74247130D01*
X110189500Y-74445242D01*
X110189500Y-74647257D01*
X110228907Y-74845369D01*
X110228910Y-74845381D01*
X110262547Y-74926588D01*
X110270016Y-74996057D01*
X110250405Y-75041114D01*
X110250895Y-75041382D01*
X110247910Y-75046846D01*
X110247260Y-75048342D01*
X110246646Y-75049161D01*
X110246645Y-75049163D01*
X110196403Y-75183870D01*
X110196401Y-75183877D01*
X110190000Y-75243405D01*
X110190000Y-75566250D01*
X111074134Y-75566250D01*
X111098326Y-75568633D01*
X111101123Y-75569189D01*
X111113995Y-75571749D01*
X111113996Y-75571750D01*
X111113997Y-75571750D01*
X111154170Y-75571750D01*
X111139925Y-75585995D01*
X111090556Y-75671505D01*
X111065000Y-75766880D01*
X111065000Y-75865620D01*
X111090556Y-75960995D01*
X111139925Y-76046505D01*
X111159670Y-76066250D01*
X110190000Y-76066250D01*
X110190000Y-76389094D01*
X110196401Y-76448622D01*
X110196403Y-76448629D01*
X110246645Y-76583336D01*
X110246649Y-76583343D01*
X110332809Y-76698437D01*
X110332812Y-76698440D01*
X110447906Y-76784600D01*
X110447913Y-76784604D01*
X110582620Y-76834846D01*
X110582627Y-76834848D01*
X110642155Y-76841249D01*
X110642172Y-76841250D01*
X111190000Y-76841250D01*
X111190000Y-76096580D01*
X111209745Y-76116325D01*
X111295255Y-76165694D01*
X111390630Y-76191250D01*
X111489370Y-76191250D01*
X111584745Y-76165694D01*
X111670255Y-76116325D01*
X111690000Y-76096580D01*
X111690000Y-76841250D01*
X112237828Y-76841250D01*
X112237844Y-76841249D01*
X112297372Y-76834848D01*
X112297379Y-76834846D01*
X112432086Y-76784604D01*
X112432093Y-76784600D01*
X112547187Y-76698440D01*
X112547190Y-76698437D01*
X112633350Y-76583343D01*
X112633354Y-76583336D01*
X112683596Y-76448629D01*
X112683598Y-76448622D01*
X112689999Y-76389094D01*
X112690000Y-76389077D01*
X112690000Y-76066250D01*
X111720330Y-76066250D01*
X111740075Y-76046505D01*
X111789444Y-75960995D01*
X111815000Y-75865620D01*
X111815000Y-75766880D01*
X111789444Y-75671505D01*
X111740075Y-75585995D01*
X111725830Y-75571750D01*
X111766004Y-75571750D01*
X111766004Y-75571749D01*
X111779473Y-75569070D01*
X111781674Y-75568633D01*
X111805866Y-75566250D01*
X112690000Y-75566250D01*
X112690000Y-75243422D01*
X112689999Y-75243405D01*
X112683598Y-75183877D01*
X112683596Y-75183870D01*
X112633354Y-75049163D01*
X112633353Y-75049161D01*
X112632745Y-75048349D01*
X112632390Y-75047398D01*
X112629103Y-75041378D01*
X112629968Y-75040905D01*
X112608329Y-74982884D01*
X112617452Y-74926588D01*
X112651091Y-74845377D01*
X112690500Y-74647253D01*
X112690500Y-74445247D01*
X112651091Y-74247123D01*
X112573786Y-74060494D01*
X112520094Y-73980139D01*
X112499217Y-73913464D01*
X112517701Y-73846084D01*
X112520078Y-73842384D01*
X112573786Y-73762006D01*
X112651091Y-73575377D01*
X112690500Y-73377253D01*
X112690500Y-73175247D01*
X112690499Y-73175242D01*
X126189500Y-73175242D01*
X126189500Y-73377257D01*
X126228907Y-73575369D01*
X126228909Y-73575377D01*
X126306213Y-73762005D01*
X126359904Y-73842359D01*
X126380782Y-73909037D01*
X126362297Y-73976417D01*
X126359904Y-73980141D01*
X126306213Y-74060494D01*
X126228909Y-74247122D01*
X126228907Y-74247130D01*
X126189500Y-74445242D01*
X126189500Y-74647257D01*
X126228907Y-74845369D01*
X126228910Y-74845381D01*
X126262547Y-74926588D01*
X126270016Y-74996057D01*
X126250405Y-75041114D01*
X126250895Y-75041382D01*
X126247910Y-75046846D01*
X126247260Y-75048342D01*
X126246646Y-75049161D01*
X126246645Y-75049163D01*
X126196403Y-75183870D01*
X126196401Y-75183877D01*
X126190000Y-75243405D01*
X126190000Y-75566250D01*
X127074134Y-75566250D01*
X127098326Y-75568633D01*
X127101123Y-75569189D01*
X127113995Y-75571749D01*
X127113996Y-75571750D01*
X127113997Y-75571750D01*
X127154170Y-75571750D01*
X127139925Y-75585995D01*
X127090556Y-75671505D01*
X127065000Y-75766880D01*
X127065000Y-75865620D01*
X127090556Y-75960995D01*
X127139925Y-76046505D01*
X127159670Y-76066250D01*
X126190000Y-76066250D01*
X126190000Y-76389094D01*
X126196401Y-76448622D01*
X126196403Y-76448629D01*
X126246645Y-76583336D01*
X126246649Y-76583343D01*
X126332809Y-76698437D01*
X126332812Y-76698440D01*
X126447906Y-76784600D01*
X126447913Y-76784604D01*
X126582620Y-76834846D01*
X126582627Y-76834848D01*
X126642155Y-76841249D01*
X126642172Y-76841250D01*
X127190000Y-76841250D01*
X127190000Y-76096580D01*
X127209745Y-76116325D01*
X127295255Y-76165694D01*
X127390630Y-76191250D01*
X127489370Y-76191250D01*
X127584745Y-76165694D01*
X127670255Y-76116325D01*
X127690000Y-76096580D01*
X127690000Y-76841250D01*
X128237828Y-76841250D01*
X128237844Y-76841249D01*
X128297372Y-76834848D01*
X128297379Y-76834846D01*
X128432086Y-76784604D01*
X128432093Y-76784600D01*
X128547187Y-76698440D01*
X128547190Y-76698437D01*
X128633350Y-76583343D01*
X128633354Y-76583336D01*
X128683596Y-76448629D01*
X128683598Y-76448622D01*
X128689999Y-76389094D01*
X128690000Y-76389077D01*
X128690000Y-76066250D01*
X127720330Y-76066250D01*
X127740075Y-76046505D01*
X127789444Y-75960995D01*
X127815000Y-75865620D01*
X127815000Y-75766880D01*
X127789444Y-75671505D01*
X127740075Y-75585995D01*
X127725830Y-75571750D01*
X127766004Y-75571750D01*
X127766004Y-75571749D01*
X127779473Y-75569070D01*
X127781674Y-75568633D01*
X127805866Y-75566250D01*
X128690000Y-75566250D01*
X128690000Y-75243422D01*
X128689999Y-75243405D01*
X128683598Y-75183877D01*
X128683596Y-75183870D01*
X128633354Y-75049163D01*
X128633353Y-75049161D01*
X128632745Y-75048349D01*
X128632390Y-75047398D01*
X128629103Y-75041378D01*
X128629968Y-75040905D01*
X128608329Y-74982884D01*
X128617452Y-74926588D01*
X128651091Y-74845377D01*
X128690500Y-74647253D01*
X128690500Y-74445247D01*
X128651091Y-74247123D01*
X128573786Y-74060494D01*
X128520094Y-73980139D01*
X128499217Y-73913464D01*
X128517701Y-73846084D01*
X128520078Y-73842384D01*
X128573786Y-73762006D01*
X128651091Y-73575377D01*
X128690500Y-73377253D01*
X128690500Y-73175247D01*
X128651091Y-72977123D01*
X128573786Y-72790494D01*
X128573784Y-72790491D01*
X128573782Y-72790487D01*
X128461558Y-72622531D01*
X128318718Y-72479691D01*
X128150762Y-72367467D01*
X128150752Y-72367462D01*
X127964127Y-72290159D01*
X127964119Y-72290157D01*
X127766007Y-72250750D01*
X127766003Y-72250750D01*
X127113997Y-72250750D01*
X127113992Y-72250750D01*
X126915880Y-72290157D01*
X126915872Y-72290159D01*
X126729247Y-72367462D01*
X126729237Y-72367467D01*
X126561281Y-72479691D01*
X126418441Y-72622531D01*
X126306217Y-72790487D01*
X126306212Y-72790497D01*
X126228909Y-72977122D01*
X126228907Y-72977130D01*
X126189500Y-73175242D01*
X112690499Y-73175242D01*
X112651091Y-72977123D01*
X112573786Y-72790494D01*
X112573784Y-72790491D01*
X112573782Y-72790487D01*
X112461558Y-72622531D01*
X112318718Y-72479691D01*
X112150762Y-72367467D01*
X112150752Y-72367462D01*
X111964127Y-72290159D01*
X111964119Y-72290157D01*
X111766007Y-72250750D01*
X111766003Y-72250750D01*
X111113997Y-72250750D01*
X111113992Y-72250750D01*
X110915880Y-72290157D01*
X110915872Y-72290159D01*
X110729247Y-72367462D01*
X110729237Y-72367467D01*
X110561281Y-72479691D01*
X110418441Y-72622531D01*
X110306217Y-72790487D01*
X110306212Y-72790497D01*
X110228909Y-72977122D01*
X110228907Y-72977130D01*
X110189500Y-73175242D01*
X97510568Y-73175242D01*
X97571091Y-73029127D01*
X97610500Y-72831003D01*
X97610500Y-72628997D01*
X97571091Y-72430873D01*
X97493786Y-72244244D01*
X97493784Y-72244241D01*
X97493782Y-72244237D01*
X97381558Y-72076281D01*
X97238718Y-71933441D01*
X97070762Y-71821217D01*
X97070752Y-71821212D01*
X96884127Y-71743909D01*
X96884119Y-71743907D01*
X96686007Y-71704500D01*
X96686003Y-71704500D01*
X96033997Y-71704500D01*
X96033992Y-71704500D01*
X95835880Y-71743907D01*
X95835872Y-71743909D01*
X95649247Y-71821212D01*
X95649237Y-71821217D01*
X95481281Y-71933441D01*
X95338441Y-72076281D01*
X95226217Y-72244237D01*
X95226212Y-72244247D01*
X95148909Y-72430872D01*
X95148907Y-72430880D01*
X95109500Y-72628992D01*
X80000500Y-72628992D01*
X80000500Y-67190288D01*
X94759500Y-67190288D01*
X94759500Y-67442211D01*
X94798910Y-67691035D01*
X94876760Y-67930633D01*
X94991132Y-68155098D01*
X95139201Y-68358899D01*
X95139205Y-68358904D01*
X95317345Y-68537044D01*
X95317350Y-68537048D01*
X95479829Y-68655095D01*
X95521155Y-68685120D01*
X95664184Y-68757997D01*
X95745616Y-68799489D01*
X95745618Y-68799489D01*
X95745621Y-68799491D01*
X95985215Y-68877340D01*
X96234038Y-68916750D01*
X96234039Y-68916750D01*
X96485961Y-68916750D01*
X96485962Y-68916750D01*
X96734785Y-68877340D01*
X96974379Y-68799491D01*
X97198845Y-68685120D01*
X97402656Y-68537043D01*
X97580793Y-68358906D01*
X97728870Y-68155095D01*
X97843241Y-67930629D01*
X97921090Y-67691035D01*
X97960500Y-67442212D01*
X97960500Y-67190288D01*
X97921090Y-66941465D01*
X97843241Y-66701871D01*
X97843239Y-66701868D01*
X97843239Y-66701866D01*
X97789017Y-66595451D01*
X97728870Y-66477405D01*
X97642629Y-66358704D01*
X97580798Y-66273600D01*
X97580794Y-66273595D01*
X97475584Y-66168385D01*
X104919500Y-66168385D01*
X104919500Y-68464120D01*
X104919501Y-68464126D01*
X104925908Y-68523733D01*
X104976202Y-68658578D01*
X104976206Y-68658585D01*
X105062452Y-68773794D01*
X105062455Y-68773797D01*
X105177664Y-68860043D01*
X105177671Y-68860047D01*
X105312517Y-68910341D01*
X105312516Y-68910341D01*
X105319444Y-68911085D01*
X105372127Y-68916750D01*
X107667872Y-68916749D01*
X107727483Y-68910341D01*
X107862331Y-68860046D01*
X107977546Y-68773796D01*
X108063796Y-68658581D01*
X108114091Y-68523733D01*
X108120500Y-68464123D01*
X108120499Y-67190288D01*
X109839500Y-67190288D01*
X109839500Y-67442211D01*
X109878910Y-67691035D01*
X109956760Y-67930633D01*
X110071132Y-68155098D01*
X110219201Y-68358899D01*
X110219205Y-68358904D01*
X110397345Y-68537044D01*
X110397350Y-68537048D01*
X110559829Y-68655095D01*
X110601155Y-68685120D01*
X110744184Y-68757997D01*
X110825616Y-68799489D01*
X110825618Y-68799489D01*
X110825621Y-68799491D01*
X111065215Y-68877340D01*
X111314038Y-68916750D01*
X111314039Y-68916750D01*
X111565961Y-68916750D01*
X111565962Y-68916750D01*
X111814785Y-68877340D01*
X112054379Y-68799491D01*
X112278845Y-68685120D01*
X112482656Y-68537043D01*
X112660793Y-68358906D01*
X112808870Y-68155095D01*
X112923241Y-67930629D01*
X113001090Y-67691035D01*
X113040500Y-67442212D01*
X113040500Y-67190288D01*
X113001090Y-66941465D01*
X112923241Y-66701871D01*
X112923239Y-66701868D01*
X112923239Y-66701866D01*
X112869017Y-66595451D01*
X112808870Y-66477405D01*
X112722629Y-66358704D01*
X112660798Y-66273600D01*
X112660794Y-66273595D01*
X112555584Y-66168385D01*
X119999500Y-66168385D01*
X119999500Y-68464120D01*
X119999501Y-68464126D01*
X120005908Y-68523733D01*
X120056202Y-68658578D01*
X120056206Y-68658585D01*
X120142452Y-68773794D01*
X120142455Y-68773797D01*
X120257664Y-68860043D01*
X120257671Y-68860047D01*
X120392517Y-68910341D01*
X120392516Y-68910341D01*
X120399444Y-68911085D01*
X120452127Y-68916750D01*
X122747872Y-68916749D01*
X122807483Y-68910341D01*
X122942331Y-68860046D01*
X123057546Y-68773796D01*
X123143796Y-68658581D01*
X123194091Y-68523733D01*
X123200500Y-68464123D01*
X123200499Y-67690288D01*
X125679500Y-67690288D01*
X125679500Y-67942211D01*
X125718910Y-68191035D01*
X125796760Y-68430633D01*
X125911132Y-68655098D01*
X126059201Y-68858899D01*
X126059205Y-68858904D01*
X126237345Y-69037044D01*
X126237350Y-69037048D01*
X126404623Y-69158578D01*
X126441155Y-69185120D01*
X126584184Y-69257997D01*
X126665616Y-69299489D01*
X126665618Y-69299489D01*
X126665621Y-69299491D01*
X126905215Y-69377340D01*
X127154038Y-69416750D01*
X127154039Y-69416750D01*
X127405961Y-69416750D01*
X127405962Y-69416750D01*
X127654785Y-69377340D01*
X127894379Y-69299491D01*
X128118845Y-69185120D01*
X128322656Y-69037043D01*
X128500793Y-68858906D01*
X128648870Y-68655095D01*
X128763241Y-68430629D01*
X128841090Y-68191035D01*
X128880500Y-67942212D01*
X128880500Y-67690288D01*
X128841090Y-67441465D01*
X128763241Y-67201871D01*
X128763239Y-67201868D01*
X128763239Y-67201866D01*
X128721747Y-67120434D01*
X128648870Y-66977405D01*
X128622757Y-66941464D01*
X128500798Y-66773600D01*
X128500794Y-66773595D01*
X128395584Y-66668385D01*
X135839500Y-66668385D01*
X135839500Y-68964120D01*
X135839501Y-68964126D01*
X135845908Y-69023733D01*
X135896202Y-69158578D01*
X135896206Y-69158585D01*
X135982452Y-69273794D01*
X135982455Y-69273797D01*
X136097664Y-69360043D01*
X136097671Y-69360047D01*
X136232517Y-69410341D01*
X136232516Y-69410341D01*
X136239444Y-69411085D01*
X136292127Y-69416750D01*
X138587872Y-69416749D01*
X138647483Y-69410341D01*
X138782331Y-69360046D01*
X138897546Y-69273796D01*
X138983796Y-69158581D01*
X139034091Y-69023733D01*
X139040500Y-68964123D01*
X139040499Y-66668378D01*
X139034091Y-66608767D01*
X139029124Y-66595451D01*
X138983797Y-66473921D01*
X138983793Y-66473914D01*
X138897547Y-66358705D01*
X138897544Y-66358702D01*
X138782335Y-66272456D01*
X138782328Y-66272452D01*
X138647482Y-66222158D01*
X138647483Y-66222158D01*
X138587883Y-66215751D01*
X138587881Y-66215750D01*
X138587873Y-66215750D01*
X138587864Y-66215750D01*
X136292129Y-66215750D01*
X136292123Y-66215751D01*
X136232516Y-66222158D01*
X136097671Y-66272452D01*
X136097664Y-66272456D01*
X135982455Y-66358702D01*
X135982452Y-66358705D01*
X135896206Y-66473914D01*
X135896202Y-66473921D01*
X135845908Y-66608767D01*
X135839501Y-66668366D01*
X135839501Y-66668373D01*
X135839500Y-66668385D01*
X128395584Y-66668385D01*
X128322654Y-66595455D01*
X128322649Y-66595451D01*
X128118848Y-66447382D01*
X128118847Y-66447381D01*
X128118845Y-66447380D01*
X128048747Y-66411663D01*
X127894383Y-66333010D01*
X127654785Y-66255160D01*
X127405962Y-66215750D01*
X127154038Y-66215750D01*
X127029626Y-66235455D01*
X126905214Y-66255160D01*
X126665616Y-66333010D01*
X126441151Y-66447382D01*
X126237350Y-66595451D01*
X126237345Y-66595455D01*
X126059205Y-66773595D01*
X126059201Y-66773600D01*
X125911132Y-66977401D01*
X125796760Y-67201866D01*
X125718910Y-67441464D01*
X125679500Y-67690288D01*
X123200499Y-67690288D01*
X123200499Y-67201871D01*
X123200499Y-66168379D01*
X123200498Y-66168373D01*
X123200497Y-66168366D01*
X123194091Y-66108767D01*
X123189124Y-66095451D01*
X123143797Y-65973921D01*
X123143793Y-65973914D01*
X123057547Y-65858705D01*
X123057544Y-65858702D01*
X122942335Y-65772456D01*
X122942328Y-65772452D01*
X122807482Y-65722158D01*
X122807483Y-65722158D01*
X122747883Y-65715751D01*
X122747881Y-65715750D01*
X122747873Y-65715750D01*
X122747864Y-65715750D01*
X120452129Y-65715750D01*
X120452123Y-65715751D01*
X120392516Y-65722158D01*
X120257671Y-65772452D01*
X120257664Y-65772456D01*
X120142455Y-65858702D01*
X120142452Y-65858705D01*
X120056206Y-65973914D01*
X120056202Y-65973921D01*
X120005908Y-66108767D01*
X119999501Y-66168366D01*
X119999501Y-66168373D01*
X119999500Y-66168385D01*
X112555584Y-66168385D01*
X112482654Y-66095455D01*
X112482649Y-66095451D01*
X112278848Y-65947382D01*
X112278847Y-65947381D01*
X112278845Y-65947380D01*
X112208747Y-65911663D01*
X112054383Y-65833010D01*
X111814785Y-65755160D01*
X111565962Y-65715750D01*
X111314038Y-65715750D01*
X111189626Y-65735455D01*
X111065214Y-65755160D01*
X110825616Y-65833010D01*
X110601151Y-65947382D01*
X110397350Y-66095451D01*
X110397345Y-66095455D01*
X110219205Y-66273595D01*
X110219201Y-66273600D01*
X110071132Y-66477401D01*
X109956760Y-66701866D01*
X109878910Y-66941464D01*
X109839500Y-67190288D01*
X108120499Y-67190288D01*
X108120499Y-66168378D01*
X108114091Y-66108767D01*
X108109124Y-66095451D01*
X108063797Y-65973921D01*
X108063793Y-65973914D01*
X107977547Y-65858705D01*
X107977544Y-65858702D01*
X107862335Y-65772456D01*
X107862328Y-65772452D01*
X107727482Y-65722158D01*
X107727483Y-65722158D01*
X107667883Y-65715751D01*
X107667881Y-65715750D01*
X107667873Y-65715750D01*
X107667864Y-65715750D01*
X105372129Y-65715750D01*
X105372123Y-65715751D01*
X105312516Y-65722158D01*
X105177671Y-65772452D01*
X105177664Y-65772456D01*
X105062455Y-65858702D01*
X105062452Y-65858705D01*
X104976206Y-65973914D01*
X104976202Y-65973921D01*
X104925908Y-66108767D01*
X104919501Y-66168366D01*
X104919501Y-66168373D01*
X104919500Y-66168385D01*
X97475584Y-66168385D01*
X97402654Y-66095455D01*
X97402649Y-66095451D01*
X97198848Y-65947382D01*
X97198847Y-65947381D01*
X97198845Y-65947380D01*
X97128747Y-65911663D01*
X96974383Y-65833010D01*
X96734785Y-65755160D01*
X96485962Y-65715750D01*
X96234038Y-65715750D01*
X96109626Y-65735455D01*
X95985214Y-65755160D01*
X95745616Y-65833010D01*
X95521151Y-65947382D01*
X95317350Y-66095451D01*
X95317345Y-66095455D01*
X95139205Y-66273595D01*
X95139201Y-66273600D01*
X94991132Y-66477401D01*
X94876760Y-66701866D01*
X94798910Y-66941464D01*
X94759500Y-67190288D01*
X80000500Y-67190288D01*
X80000500Y-56316234D01*
X99839500Y-56316234D01*
X99839500Y-58316265D01*
X99850000Y-58419045D01*
X99850001Y-58419047D01*
X99856904Y-58439879D01*
X99905186Y-58585585D01*
X99905187Y-58585587D01*
X99997286Y-58734901D01*
X99997289Y-58734905D01*
X100121344Y-58858960D01*
X100121348Y-58858963D01*
X100270662Y-58951062D01*
X100270664Y-58951063D01*
X100270666Y-58951064D01*
X100437203Y-59006249D01*
X100539992Y-59016750D01*
X100539997Y-59016750D01*
X102540003Y-59016750D01*
X102540008Y-59016750D01*
X102642797Y-59006249D01*
X102809334Y-58951064D01*
X102958655Y-58858961D01*
X103082711Y-58734905D01*
X103174814Y-58585584D01*
X103229999Y-58419047D01*
X103240500Y-58316258D01*
X103240500Y-57204799D01*
X104919500Y-57204799D01*
X104919500Y-57427700D01*
X104919501Y-57427716D01*
X104948594Y-57648702D01*
X104948595Y-57648707D01*
X104948596Y-57648713D01*
X104948597Y-57648715D01*
X105006290Y-57864030D01*
X105006293Y-57864040D01*
X105091593Y-58069972D01*
X105091595Y-58069976D01*
X105203052Y-58263024D01*
X105203057Y-58263030D01*
X105203058Y-58263032D01*
X105338751Y-58439872D01*
X105338757Y-58439879D01*
X105496370Y-58597492D01*
X105496376Y-58597497D01*
X105673226Y-58733198D01*
X105866274Y-58844655D01*
X106072219Y-58929960D01*
X106287537Y-58987654D01*
X106508543Y-59016750D01*
X106508550Y-59016750D01*
X106731450Y-59016750D01*
X106731457Y-59016750D01*
X106952463Y-58987654D01*
X107167781Y-58929960D01*
X107373726Y-58844655D01*
X107566774Y-58733198D01*
X107743624Y-58597497D01*
X107901247Y-58439874D01*
X108036948Y-58263024D01*
X108148405Y-58069976D01*
X108233710Y-57864031D01*
X108291404Y-57648713D01*
X108320500Y-57427707D01*
X108320500Y-57204799D01*
X109999500Y-57204799D01*
X109999500Y-57427700D01*
X109999501Y-57427716D01*
X110028594Y-57648702D01*
X110028595Y-57648707D01*
X110028596Y-57648713D01*
X110028597Y-57648715D01*
X110086290Y-57864030D01*
X110086293Y-57864040D01*
X110171593Y-58069972D01*
X110171595Y-58069976D01*
X110283052Y-58263024D01*
X110283057Y-58263030D01*
X110283058Y-58263032D01*
X110418751Y-58439872D01*
X110418757Y-58439879D01*
X110576370Y-58597492D01*
X110576376Y-58597497D01*
X110753226Y-58733198D01*
X110946274Y-58844655D01*
X111152219Y-58929960D01*
X111367537Y-58987654D01*
X111588543Y-59016750D01*
X111588550Y-59016750D01*
X111811450Y-59016750D01*
X111811457Y-59016750D01*
X112032463Y-58987654D01*
X112247781Y-58929960D01*
X112453726Y-58844655D01*
X112646774Y-58733198D01*
X112823624Y-58597497D01*
X112981247Y-58439874D01*
X113116948Y-58263024D01*
X113228405Y-58069976D01*
X113313710Y-57864031D01*
X113371404Y-57648713D01*
X113400500Y-57427707D01*
X113400500Y-57204799D01*
X115079500Y-57204799D01*
X115079500Y-57427700D01*
X115079501Y-57427716D01*
X115108594Y-57648702D01*
X115108595Y-57648707D01*
X115108596Y-57648713D01*
X115108597Y-57648715D01*
X115166290Y-57864030D01*
X115166293Y-57864040D01*
X115251593Y-58069972D01*
X115251595Y-58069976D01*
X115363052Y-58263024D01*
X115363057Y-58263030D01*
X115363058Y-58263032D01*
X115498751Y-58439872D01*
X115498757Y-58439879D01*
X115656370Y-58597492D01*
X115656376Y-58597497D01*
X115833226Y-58733198D01*
X116026274Y-58844655D01*
X116232219Y-58929960D01*
X116447537Y-58987654D01*
X116668543Y-59016750D01*
X116668550Y-59016750D01*
X116891450Y-59016750D01*
X116891457Y-59016750D01*
X117112463Y-58987654D01*
X117327781Y-58929960D01*
X117533726Y-58844655D01*
X117726774Y-58733198D01*
X117903624Y-58597497D01*
X118061247Y-58439874D01*
X118196948Y-58263024D01*
X118308405Y-58069976D01*
X118393710Y-57864031D01*
X118451404Y-57648713D01*
X118480500Y-57427707D01*
X118480500Y-57204799D01*
X120159500Y-57204799D01*
X120159500Y-57427700D01*
X120159501Y-57427716D01*
X120188594Y-57648702D01*
X120188595Y-57648707D01*
X120188596Y-57648713D01*
X120188597Y-57648715D01*
X120246290Y-57864030D01*
X120246293Y-57864040D01*
X120331593Y-58069972D01*
X120331595Y-58069976D01*
X120443052Y-58263024D01*
X120443057Y-58263030D01*
X120443058Y-58263032D01*
X120578751Y-58439872D01*
X120578757Y-58439879D01*
X120736370Y-58597492D01*
X120736376Y-58597497D01*
X120913226Y-58733198D01*
X121106274Y-58844655D01*
X121312219Y-58929960D01*
X121527537Y-58987654D01*
X121748543Y-59016750D01*
X121748550Y-59016750D01*
X121971450Y-59016750D01*
X121971457Y-59016750D01*
X122192463Y-58987654D01*
X122407781Y-58929960D01*
X122613726Y-58844655D01*
X122806774Y-58733198D01*
X122983624Y-58597497D01*
X123141247Y-58439874D01*
X123276948Y-58263024D01*
X123388405Y-58069976D01*
X123473710Y-57864031D01*
X123531404Y-57648713D01*
X123560500Y-57427707D01*
X123560500Y-57204799D01*
X125239500Y-57204799D01*
X125239500Y-57427700D01*
X125239501Y-57427716D01*
X125268594Y-57648702D01*
X125268595Y-57648707D01*
X125268596Y-57648713D01*
X125268597Y-57648715D01*
X125326290Y-57864030D01*
X125326293Y-57864040D01*
X125411593Y-58069972D01*
X125411595Y-58069976D01*
X125523052Y-58263024D01*
X125523057Y-58263030D01*
X125523058Y-58263032D01*
X125658751Y-58439872D01*
X125658757Y-58439879D01*
X125816370Y-58597492D01*
X125816376Y-58597497D01*
X125993226Y-58733198D01*
X126186274Y-58844655D01*
X126392219Y-58929960D01*
X126607537Y-58987654D01*
X126828543Y-59016750D01*
X126828550Y-59016750D01*
X127051450Y-59016750D01*
X127051457Y-59016750D01*
X127272463Y-58987654D01*
X127487781Y-58929960D01*
X127693726Y-58844655D01*
X127886774Y-58733198D01*
X128063624Y-58597497D01*
X128221247Y-58439874D01*
X128356948Y-58263024D01*
X128468405Y-58069976D01*
X128553710Y-57864031D01*
X128611404Y-57648713D01*
X128640500Y-57427707D01*
X128640500Y-57204793D01*
X128611404Y-56983787D01*
X128553710Y-56768469D01*
X128468405Y-56562524D01*
X128356948Y-56369476D01*
X128221247Y-56192626D01*
X128221242Y-56192620D01*
X128063629Y-56035007D01*
X128063622Y-56035001D01*
X127886782Y-55899308D01*
X127886780Y-55899307D01*
X127886774Y-55899302D01*
X127693726Y-55787845D01*
X127693722Y-55787843D01*
X127487790Y-55702543D01*
X127487783Y-55702541D01*
X127487781Y-55702540D01*
X127272463Y-55644846D01*
X127272457Y-55644845D01*
X127272452Y-55644844D01*
X127051466Y-55615751D01*
X127051463Y-55615750D01*
X127051457Y-55615750D01*
X126828543Y-55615750D01*
X126828537Y-55615750D01*
X126828533Y-55615751D01*
X126607547Y-55644844D01*
X126607540Y-55644845D01*
X126607537Y-55644846D01*
X126470981Y-55681436D01*
X126392219Y-55702540D01*
X126392209Y-55702543D01*
X126186277Y-55787843D01*
X126186273Y-55787845D01*
X125993226Y-55899302D01*
X125993217Y-55899308D01*
X125816377Y-56035001D01*
X125816370Y-56035007D01*
X125658757Y-56192620D01*
X125658751Y-56192627D01*
X125523058Y-56369467D01*
X125523052Y-56369476D01*
X125411595Y-56562523D01*
X125411593Y-56562527D01*
X125326293Y-56768459D01*
X125326290Y-56768469D01*
X125268597Y-56983784D01*
X125268594Y-56983797D01*
X125239501Y-57204783D01*
X125239500Y-57204799D01*
X123560500Y-57204799D01*
X123560500Y-57204793D01*
X123531404Y-56983787D01*
X123473710Y-56768469D01*
X123388405Y-56562524D01*
X123276948Y-56369476D01*
X123141247Y-56192626D01*
X123141242Y-56192620D01*
X122983629Y-56035007D01*
X122983622Y-56035001D01*
X122806782Y-55899308D01*
X122806780Y-55899307D01*
X122806774Y-55899302D01*
X122613726Y-55787845D01*
X122613722Y-55787843D01*
X122407790Y-55702543D01*
X122407783Y-55702541D01*
X122407781Y-55702540D01*
X122192463Y-55644846D01*
X122192457Y-55644845D01*
X122192452Y-55644844D01*
X121971466Y-55615751D01*
X121971463Y-55615750D01*
X121971457Y-55615750D01*
X121748543Y-55615750D01*
X121748537Y-55615750D01*
X121748533Y-55615751D01*
X121527547Y-55644844D01*
X121527540Y-55644845D01*
X121527537Y-55644846D01*
X121390981Y-55681436D01*
X121312219Y-55702540D01*
X121312209Y-55702543D01*
X121106277Y-55787843D01*
X121106273Y-55787845D01*
X120913226Y-55899302D01*
X120913217Y-55899308D01*
X120736377Y-56035001D01*
X120736370Y-56035007D01*
X120578757Y-56192620D01*
X120578751Y-56192627D01*
X120443058Y-56369467D01*
X120443052Y-56369476D01*
X120331595Y-56562523D01*
X120331593Y-56562527D01*
X120246293Y-56768459D01*
X120246290Y-56768469D01*
X120188597Y-56983784D01*
X120188594Y-56983797D01*
X120159501Y-57204783D01*
X120159500Y-57204799D01*
X118480500Y-57204799D01*
X118480500Y-57204793D01*
X118451404Y-56983787D01*
X118393710Y-56768469D01*
X118308405Y-56562524D01*
X118196948Y-56369476D01*
X118061247Y-56192626D01*
X118061242Y-56192620D01*
X117903629Y-56035007D01*
X117903622Y-56035001D01*
X117726782Y-55899308D01*
X117726780Y-55899307D01*
X117726774Y-55899302D01*
X117533726Y-55787845D01*
X117533722Y-55787843D01*
X117327790Y-55702543D01*
X117327783Y-55702541D01*
X117327781Y-55702540D01*
X117112463Y-55644846D01*
X117112457Y-55644845D01*
X117112452Y-55644844D01*
X116891466Y-55615751D01*
X116891463Y-55615750D01*
X116891457Y-55615750D01*
X116668543Y-55615750D01*
X116668537Y-55615750D01*
X116668533Y-55615751D01*
X116447547Y-55644844D01*
X116447540Y-55644845D01*
X116447537Y-55644846D01*
X116310981Y-55681436D01*
X116232219Y-55702540D01*
X116232209Y-55702543D01*
X116026277Y-55787843D01*
X116026273Y-55787845D01*
X115833226Y-55899302D01*
X115833217Y-55899308D01*
X115656377Y-56035001D01*
X115656370Y-56035007D01*
X115498757Y-56192620D01*
X115498751Y-56192627D01*
X115363058Y-56369467D01*
X115363052Y-56369476D01*
X115251595Y-56562523D01*
X115251593Y-56562527D01*
X115166293Y-56768459D01*
X115166290Y-56768469D01*
X115108597Y-56983784D01*
X115108594Y-56983797D01*
X115079501Y-57204783D01*
X115079500Y-57204799D01*
X113400500Y-57204799D01*
X113400500Y-57204793D01*
X113371404Y-56983787D01*
X113313710Y-56768469D01*
X113228405Y-56562524D01*
X113116948Y-56369476D01*
X112981247Y-56192626D01*
X112981242Y-56192620D01*
X112823629Y-56035007D01*
X112823622Y-56035001D01*
X112646782Y-55899308D01*
X112646780Y-55899307D01*
X112646774Y-55899302D01*
X112453726Y-55787845D01*
X112453722Y-55787843D01*
X112247790Y-55702543D01*
X112247783Y-55702541D01*
X112247781Y-55702540D01*
X112032463Y-55644846D01*
X112032457Y-55644845D01*
X112032452Y-55644844D01*
X111811466Y-55615751D01*
X111811463Y-55615750D01*
X111811457Y-55615750D01*
X111588543Y-55615750D01*
X111588537Y-55615750D01*
X111588533Y-55615751D01*
X111367547Y-55644844D01*
X111367540Y-55644845D01*
X111367537Y-55644846D01*
X111230981Y-55681436D01*
X111152219Y-55702540D01*
X111152209Y-55702543D01*
X110946277Y-55787843D01*
X110946273Y-55787845D01*
X110753226Y-55899302D01*
X110753217Y-55899308D01*
X110576377Y-56035001D01*
X110576370Y-56035007D01*
X110418757Y-56192620D01*
X110418751Y-56192627D01*
X110283058Y-56369467D01*
X110283052Y-56369476D01*
X110171595Y-56562523D01*
X110171593Y-56562527D01*
X110086293Y-56768459D01*
X110086290Y-56768469D01*
X110028597Y-56983784D01*
X110028594Y-56983797D01*
X109999501Y-57204783D01*
X109999500Y-57204799D01*
X108320500Y-57204799D01*
X108320500Y-57204793D01*
X108291404Y-56983787D01*
X108233710Y-56768469D01*
X108148405Y-56562524D01*
X108036948Y-56369476D01*
X107901247Y-56192626D01*
X107901242Y-56192620D01*
X107743629Y-56035007D01*
X107743622Y-56035001D01*
X107566782Y-55899308D01*
X107566780Y-55899307D01*
X107566774Y-55899302D01*
X107373726Y-55787845D01*
X107373722Y-55787843D01*
X107167790Y-55702543D01*
X107167783Y-55702541D01*
X107167781Y-55702540D01*
X106952463Y-55644846D01*
X106952457Y-55644845D01*
X106952452Y-55644844D01*
X106731466Y-55615751D01*
X106731463Y-55615750D01*
X106731457Y-55615750D01*
X106508543Y-55615750D01*
X106508537Y-55615750D01*
X106508533Y-55615751D01*
X106287547Y-55644844D01*
X106287540Y-55644845D01*
X106287537Y-55644846D01*
X106150981Y-55681436D01*
X106072219Y-55702540D01*
X106072209Y-55702543D01*
X105866277Y-55787843D01*
X105866273Y-55787845D01*
X105673226Y-55899302D01*
X105673217Y-55899308D01*
X105496377Y-56035001D01*
X105496370Y-56035007D01*
X105338757Y-56192620D01*
X105338751Y-56192627D01*
X105203058Y-56369467D01*
X105203052Y-56369476D01*
X105091595Y-56562523D01*
X105091593Y-56562527D01*
X105006293Y-56768459D01*
X105006290Y-56768469D01*
X104948597Y-56983784D01*
X104948594Y-56983797D01*
X104919501Y-57204783D01*
X104919500Y-57204799D01*
X103240500Y-57204799D01*
X103240500Y-56316242D01*
X103229999Y-56213453D01*
X103174814Y-56046916D01*
X103167468Y-56035007D01*
X103082713Y-55897598D01*
X103082710Y-55897594D01*
X102958655Y-55773539D01*
X102958651Y-55773536D01*
X102809337Y-55681437D01*
X102809335Y-55681436D01*
X102698907Y-55644844D01*
X102642797Y-55626251D01*
X102642795Y-55626250D01*
X102540015Y-55615750D01*
X102540008Y-55615750D01*
X100539992Y-55615750D01*
X100539984Y-55615750D01*
X100437204Y-55626250D01*
X100437203Y-55626251D01*
X100270664Y-55681436D01*
X100270662Y-55681437D01*
X100121348Y-55773536D01*
X100121344Y-55773539D01*
X99997289Y-55897594D01*
X99997286Y-55897598D01*
X99905187Y-56046912D01*
X99905186Y-56046914D01*
X99850001Y-56213453D01*
X99850000Y-56213454D01*
X99839500Y-56316234D01*
X80000500Y-56316234D01*
X80000500Y-49124500D01*
X80020185Y-49057461D01*
X80072989Y-49011706D01*
X80124500Y-49000500D01*
X141375500Y-49000500D01*
X141442539Y-49020185D01*
G37*
%TD.AperFunction*%
%TD*%
M02*
