%TF.GenerationSoftware,KiCad,Pcbnew,9.0.1-9.0.1-0~ubuntu24.04.1*%
%TF.CreationDate,2025-04-02T18:22:30+02:00*%
%TF.ProjectId,starter,73746172-7465-4722-9e6b-696361645f70,rev?*%
%TF.SameCoordinates,Original*%
%TF.FileFunction,Plated,1,2,PTH,Drill*%
%TF.FilePolarity,Positive*%
%FSLAX46Y46*%
G04 Gerber Fmt 4.6, Leading zero omitted, Abs format (unit mm)*
G04 Created by KiCad (PCBNEW 9.0.1-9.0.1-0~ubuntu24.04.1) date 2025-04-02 18:22:30*
%MOMM*%
%LPD*%
G01*
G04 APERTURE LIST*
%TA.AperFunction,ComponentDrill*%
%ADD10C,0.700000*%
%TD*%
%TA.AperFunction,ComponentDrill*%
%ADD11C,0.750000*%
%TD*%
%TA.AperFunction,ComponentDrill*%
%ADD12C,0.900000*%
%TD*%
%TA.AperFunction,ComponentDrill*%
%ADD13C,0.950000*%
%TD*%
%TA.AperFunction,ComponentDrill*%
%ADD14C,1.000000*%
%TD*%
%TA.AperFunction,ComponentDrill*%
%ADD15C,1.100000*%
%TD*%
%TA.AperFunction,ComponentDrill*%
%ADD16C,1.270000*%
%TD*%
%TA.AperFunction,ComponentDrill*%
%ADD17C,1.600000*%
%TD*%
G04 APERTURE END LIST*
D10*
%TO.C,R1*%
X85980000Y-84316250D03*
X91060000Y-84316250D03*
%TO.C,R2*%
X104980000Y-83816250D03*
X110060000Y-83816250D03*
%TO.C,R3*%
X122675000Y-84316250D03*
X127755000Y-84316250D03*
D11*
%TO.C,Q4*%
X96360000Y-72730000D03*
X96360000Y-74000000D03*
X96360000Y-75270000D03*
%TO.C,Q2*%
X111440000Y-73276250D03*
X111440000Y-74546250D03*
X111440000Y-75816250D03*
%TO.C,Q3*%
X127440000Y-73276250D03*
X127440000Y-74546250D03*
X127440000Y-75816250D03*
D12*
%TO.C,D1*%
X95440000Y-84316250D03*
X97980000Y-84316250D03*
%TO.C,D5*%
X114940000Y-83816250D03*
X117480000Y-83816250D03*
%TO.C,D6*%
X132900000Y-84316250D03*
X135440000Y-84316250D03*
D13*
%TO.C,J1*%
X107040000Y-95816250D03*
X107040000Y-98316250D03*
X107040000Y-100816250D03*
X107040000Y-103316250D03*
X107040000Y-105816250D03*
X107040000Y-108316250D03*
D14*
%TO.C,J4*%
X92290000Y-109841250D03*
X94790000Y-109841250D03*
D15*
%TO.C,D2*%
X96360000Y-67316250D03*
X106520000Y-67316250D03*
%TO.C,D3*%
X111440000Y-67316250D03*
X121600000Y-67316250D03*
%TO.C,D4*%
X127280000Y-67816250D03*
X137440000Y-67816250D03*
D16*
%TO.C,U1*%
X118920000Y-94436250D03*
X118920000Y-96976250D03*
X118920000Y-99516250D03*
X118920000Y-102056250D03*
X118920000Y-104596250D03*
X118920000Y-107136250D03*
X118920000Y-109676250D03*
X118920000Y-112216250D03*
X134160000Y-94436250D03*
X134160000Y-96976250D03*
X134160000Y-99516250D03*
X134160000Y-102056250D03*
X134160000Y-104596250D03*
X134160000Y-107136250D03*
X134160000Y-109676250D03*
X134160000Y-112216250D03*
D17*
%TO.C,J3*%
X89200000Y-96458750D03*
X94280000Y-96458750D03*
%TO.C,J2*%
X101540000Y-57316250D03*
X106620000Y-57316250D03*
X111700000Y-57316250D03*
X116780000Y-57316250D03*
X121860000Y-57316250D03*
X126940000Y-57316250D03*
M02*
