M48
; DRILL file {KiCad 9.0.1-9.0.1-0~ubuntu24.04.1} date 2025-04-02T18:22:05+0200
; FORMAT={-:-/ absolute / metric / decimal}
; #@! TF.CreationDate,2025-04-02T18:22:05+02:00
; #@! TF.GenerationSoftware,Kicad,Pcbnew,9.0.1-9.0.1-0~ubuntu24.04.1
; #@! TF.FileFunction,Plated,1,2,PTH
FMAT,2
METRIC
; #@! TA.AperFunction,Plated,PTH,ComponentDrill
T1C0.700
; #@! TA.AperFunction,Plated,PTH,ComponentDrill
T2C0.750
; #@! TA.AperFunction,Plated,PTH,ComponentDrill
T3C0.900
; #@! TA.AperFunction,Plated,PTH,ComponentDrill
T4C0.950
; #@! TA.AperFunction,Plated,PTH,ComponentDrill
T5C1.000
; #@! TA.AperFunction,Plated,PTH,ComponentDrill
T6C1.100
; #@! TA.AperFunction,Plated,PTH,ComponentDrill
T7C1.270
; #@! TA.AperFunction,Plated,PTH,ComponentDrill
T8C1.600
%
G90
G05
T1
X85.98Y-84.316
X91.06Y-84.316
X104.98Y-83.816
X110.06Y-83.816
X122.675Y-84.316
X127.755Y-84.316
T2
X96.36Y-72.73
X96.36Y-74.0
X96.36Y-75.27
X111.44Y-73.276
X111.44Y-74.546
X111.44Y-75.816
X127.44Y-73.276
X127.44Y-74.546
X127.44Y-75.816
T3
X95.44Y-84.316
X97.98Y-84.316
X114.94Y-83.816
X117.48Y-83.816
X132.9Y-84.316
X135.44Y-84.316
T4
X107.04Y-95.816
X107.04Y-98.316
X107.04Y-100.816
X107.04Y-103.316
X107.04Y-105.816
X107.04Y-108.316
T5
X92.29Y-109.841
X94.79Y-109.841
T6
X96.36Y-67.316
X106.52Y-67.316
X111.44Y-67.316
X121.6Y-67.316
X127.28Y-67.816
X137.44Y-67.816
T7
X118.92Y-94.436
X118.92Y-96.976
X118.92Y-99.516
X118.92Y-102.056
X118.92Y-104.596
X118.92Y-107.136
X118.92Y-109.676
X118.92Y-112.216
X134.16Y-94.436
X134.16Y-96.976
X134.16Y-99.516
X134.16Y-102.056
X134.16Y-104.596
X134.16Y-107.136
X134.16Y-109.676
X134.16Y-112.216
T8
X89.2Y-96.459
X94.28Y-96.459
X101.54Y-57.316
X106.62Y-57.316
X111.7Y-57.316
X116.78Y-57.316
X121.86Y-57.316
X126.94Y-57.316
M30
